<svg xmlns="http://www.w3.org/2000/svg" viewBox="0 0 32 32" width="24" height="24"><path d="M16 1.778c7.855 0 14.222 6.367 14.222 14.222s-6.367 14.222-14.222 14.222-14.222-6.367-14.222-14.222 6.367-14.222 14.222-14.222zM23 8.889h-14c-0.552 0-1 0.448-1 1v10.593c0 0.552 0.448 1 1 1h0.855l1.035 1.994c0.254 0.49 0.858 0.681 1.348 0.427 0.184-0.097 0.33-0.243 0.424-0.421l0.003-0.005 1.035-1.994h9.299c0.552 0 1-0.448 1-1v-10.593c0-0.552-0.448-1-1-1zM22.222 10.667v9.038h-9.602l-0.842 1.623-0.843-1.623h-1.157v-9.038h12.444z"></path></svg>