<svg xmlns="http://www.w3.org/2000/svg" viewBox="0 0 32 32" width="24" height="24" style="fill: rgba(255,255,255,1);"><path d="M24.532 5.333c0.5 0 0.962 0.237 1.219 0.623l4.266 6.419c0.31 0.465 0.263 1.056-0.118 1.476l-12.799 14.122c-0.27 0.298-0.675 0.471-1.102 0.47s-0.831-0.174-1.101-0.473l-12.799-14.122c-0.381-0.42-0.429-1.011-0.118-1.476l4.266-6.419c0.258-0.386 0.721-0.621 1.219-0.621h17.065zM22.222 10.667h-12.444c-0.491 0-0.889 0.398-0.889 0.889s0.398 0.889 0.889 0.889h12.444c0.491 0 0.889-0.398 0.889-0.889s-0.398-0.889-0.889-0.889z"></path></svg>