<svg xmlns="http://www.w3.org/2000/svg" viewBox="0 0 32 32" width="24" height="24" style="fill: rgba(255,255,255,1);"><path d="M24.073 3.556c0.393 0 0.752 0.263 0.857 0.66l1.2 4.475h0.722c0.88 0 1.593 0.713 1.593 1.593v16.37c0 0.88-0.713 1.593-1.593 1.593h-21.703c-0.88 0-1.593-0.713-1.593-1.593v-16.37c0-0.796 0.594-1.426 1.356-1.547l4.916-4.916c0.132-0.132 0.3-0.196 0.473-0.196 0.171 0 0.34 0.064 0.471 0.196 0.005 0.007 0.004 0.016 0.007 0.021 0.007 0.005 0.018 0.004 0.023 0.009l2.548 2.548 10.492-2.812c0.076-0.020 0.155-0.030 0.231-0.030zM26.667 10.468h-21.333v16h21.333v-16zM23.445 5.534l-11.78 3.156h12.624l-0.844-3.156zM10.3 5.236l-2.708 2.704 4.268-1.141-1.561-1.563zM17.854 14.126c-0.246 0-0.468 0.099-0.629 0.26l0-0-1.225 1.227-1.225-1.227c-0.161-0.16-0.384-0.26-0.629-0.26v0c-0.228 0-0.455 0.087-0.628 0.26-0.348 0.348-0.348 0.91 0 1.259l0.942 0.944h-0.683c-0.491 0-0.889 0.396-0.889 0.889 0 0.489 0.398 0.889 0.889 0.889h1.333v0.889h-1.333c-0.491 0-0.889 0.396-0.889 0.889 0 0.489 0.398 0.889 0.889 0.889h1.333v0.889c0 0.489 0.398 0.889 0.889 0.889s0.889-0.4 0.889-0.889v-0.889h1.333c0.491 0 0.889-0.4 0.889-0.889 0-0.492-0.398-0.889-0.889-0.889h-1.333v-0.889h1.333c0.491 0 0.889-0.4 0.889-0.889 0-0.492-0.398-0.889-0.889-0.889h-0.683l0.944-0.944c0.347-0.348 0.347-0.91 0-1.259-0.161-0.16-0.384-0.26-0.629-0.26 0 0 0 0-0 0v0z"></path></svg>