<svg xmlns="http://www.w3.org/2000/svg" viewBox="0 0 32 32" width="24" height="24"  style="fill:#FF9800;"><path d="M7.111 3.556h17.778c0.982 0 1.778 0.796 1.778 1.778v8c0 0.491-0.398 0.889-0.889 0.889s-0.889-0.398-0.889-0.889v-8h-17.778v21.333h6.222c0.491 0 0.889 0.398 0.889 0.889s-0.398 0.889-0.889 0.889h-6.222c-0.982 0-1.778-0.796-1.778-1.778v-21.333c0-0.982 0.796-1.778 1.778-1.778z"></path><path d="M23.111 28.444c2.946 0 5.333-2.388 5.333-5.333s-2.388-5.333-5.333-5.333-5.333 2.388-5.333 5.333c0 2.946 2.388 5.333 5.333 5.333zM23.111 30.222c-3.927 0-7.111-3.184-7.111-7.111s3.184-7.111 7.111-7.111 7.111 3.184 7.111 7.111-3.184 7.111-7.111 7.111z"></path><path d="M25.016 23.188c0.421 0 0.762-0.341 0.762-0.762s-0.341-0.762-0.762-0.762h-0.585l0.808-0.808c0.299-0.299 0.299-0.78 0-1.077-0.297-0.299-0.779-0.299-1.077 0l-1.050 1.050-1.050-1.050c-0.299-0.299-0.78-0.299-1.077 0-0.299 0.297-0.299 0.779 0 1.077l0.808 0.808h-0.585c-0.421 0-0.762 0.341-0.762 0.762s0.341 0.762 0.762 0.762h1.143v0.762h-1.143c-0.421 0-0.762 0.341-0.762 0.762s0.341 0.762 0.762 0.762h1.143v0.762c0 0.421 0.341 0.762 0.762 0.762s0.762-0.341 0.762-0.762v-0.762h1.143c0.421 0 0.762-0.341 0.762-0.762s-0.341-0.762-0.762-0.762h-1.143v-0.762h1.143zM9.778 8.889h10.667c0.491 0 0.889 0.398 0.889 0.889s-0.398 0.889-0.889 0.889h-10.667c-0.491 0-0.889-0.398-0.889-0.889s0.398-0.889 0.889-0.889zM9.778 12.444h7.111c0.491 0 0.889 0.398 0.889 0.889s-0.398 0.889-0.889 0.889h-7.111c-0.491 0-0.889-0.398-0.889-0.889s0.398-0.889 0.889-0.889zM9.778 16h3.556c0.491 0 0.889 0.398 0.889 0.889s-0.398 0.889-0.889 0.889h-3.556c-0.491 0-0.889-0.398-0.889-0.889s0.398-0.889 0.889-0.889z"></path></svg>