<svg xmlns="http://www.w3.org/2000/svg" viewBox="0 0 32 32" width="24" height="24" style="fill:#4CAF50;"><path d="M5.333 8.889v17.778h21.333v-17.778h-21.333zM26.457 7.111l-0.889-1.778h-19.136l-0.889 1.778h-1.988l1.286-2.573c0.298-0.587 0.898-0.983 1.59-0.983h19.136c0.692 0 1.292 0.395 1.585 0.973l0.005 0.010 1.286 2.573v19.556c0 0.982-0.796 1.778-1.778 1.778h-21.333c-0.982 0-1.778-0.796-1.778-1.778v-19.556h22.901z"></path><path d="M16.016 14.184l1.241-1.241c0.347-0.347 0.91-0.347 1.257 0s0.347 0.91 0 1.257l-0.911 0.911h0.619c0.491 0 0.889 0.398 0.889 0.889s-0.398 0.889-0.889 0.889h-1.333v0.889h1.333c0.491 0 0.889 0.398 0.889 0.889s-0.398 0.889-0.889 0.889h-1.333v0.889c0 0.491-0.398 0.889-0.889 0.889s-0.889-0.398-0.889-0.889v-0.889h-1.333c-0.491 0-0.889-0.398-0.889-0.889s0.398-0.889 0.889-0.889h1.333v-0.889h-1.333c-0.491 0-0.889-0.398-0.889-0.889s0.398-0.889 0.889-0.889h0.651l-0.911-0.911c-0.347-0.347-0.347-0.91 0-1.257s0.91-0.347 1.257 0l1.241 1.241z"></path></svg>