<svg xmlns="http://www.w3.org/2000/svg" viewBox="0 0 32 32" width="24" height="24" style="fill:#ff9822;"><path d="M16 28.444c6.873 0 12.444-5.572 12.444-12.444s-5.572-12.444-12.444-12.444c-6.873 0-12.444 5.572-12.444 12.444s5.572 12.444 12.444 12.444zM16 30.222c-7.855 0-14.222-6.367-14.222-14.222s6.367-14.222 14.222-14.222 14.222 6.367 14.222 14.222-6.367 14.222-14.222 14.222z"></path><path d="M8.889 10.667h15.030c0.491 0 0.889 0.398 0.889 0.889 0 0.092-0.014 0.184-0.043 0.272l-1.716 5.333c-0.119 0.361-0.453 0.617-0.846 0.617 0 0 0 0-0 0h-13.313v-7.111z"></path><path d="M11.556 23.111c0 0.491-0.398 0.889-0.889 0.889s-0.889-0.398-0.889-0.889c0-0.491 0.398-0.889 0.889-0.889s0.889 0.398 0.889 0.889z"></path><path d="M22.222 23.111c0 0.491-0.398 0.889-0.889 0.889s-0.889-0.398-0.889-0.889c0-0.491 0.398-0.889 0.889-0.889s0.889 0.398 0.889 0.889z"></path><path d="M8.011 10.667c-0.491 0-0.889-0.398-0.889-0.889s0.398-0.889 0.889-0.889h0.889c0.982 0 1.778 0.796 1.778 1.778v8.895h11.548c0.491 0 0.889 0.398 0.889 0.889s-0.398 0.889-0.889 0.889h-11.548c-0.982 0-1.778-0.796-1.778-1.778v-8.895h-0.889z"></path></svg>