<svg xmlns="http://www.w3.org/2000/svg" viewBox="0 0 32 32" width="24" height="24" style="fill:#FFC107;"><path d="M27.28 20.941l-1.619-0.734c-0.94 2.072-2.494 3.804-4.509 4.966-5.255 3.034-11.974 1.233-15.008-4.021s-1.233-11.974 4.021-15.008c5.255-3.034 11.974-1.233 15.008 4.021l1.54-0.889c-3.525-6.105-11.331-8.197-17.436-4.672s-8.197 11.331-4.672 17.436c3.525 6.105 11.331 8.197 17.436 4.672 2.398-1.384 4.176-3.429 5.239-5.772zM22.041 26.713c2.398-1.384 4.176-3.429 5.239-5.772l-1.619-0.734c-0.94 2.072-2.494 3.804-4.509 4.966-5.255 3.034-11.974 1.233-15.008-4.021s-1.233-11.974 4.021-15.008c5.255-3.034 11.974-1.233 15.008 4.021l1.54-0.889c-3.525-6.105-11.331-8.197-17.436-4.672s-8.197 11.331-4.672 17.436c3.525 6.105 11.331 8.197 17.436 4.672zM25.965 10.645c0.491 0 0.889-0.398 0.889-0.889s-0.398-0.889-0.889-0.889-0.889 0.398-0.889 0.889 0.398 0.889 0.889 0.889zM26.485 21.439c0.491 0 0.889-0.398 0.889-0.889s-0.398-0.889-0.889-0.889c-0.491 0-0.889 0.398-0.889 0.889s0.398 0.889 0.889 0.889z"></path><path d="M27.993 12.89c0.001-0.002 0.004-0.003 0.006-0.003s0.004 0.001 0.005 0.002v0l3.543 3.075c0.002 0.001 0.003 0.004 0.003 0.006s-0.001 0.005-0.003 0.006v0l-3.543 3.075c-0.001 0.001-0.003 0.002-0.005 0.002-0.004 0-0.008-0.004-0.008-0.008 0 0 0 0 0 0v0-2.156h-3.991c-0.491 0-0.889-0.398-0.889-0.889s0.398-0.889 0.889-0.889h3.991v-2.216c0-0.001 0-0.003 0.001-0.004z"></path><path d="M10.449 14.005c0-0.491 0.398-0.889 0.889-0.889h8.889c0.491 0 0.889 0.398 0.889 0.889s-0.398 0.889-0.889 0.889h-8.889c-0.491 0-0.889-0.398-0.889-0.889z"></path><path d="M14.894 14.005h1.778v8c0 0.491-0.398 0.889-0.889 0.889s-0.889-0.398-0.889-0.889v-8z"></path><path d="M10.449 17.56c0-0.491 0.398-0.889 0.889-0.889h8.889c0.491 0 0.889 0.398 0.889 0.889s-0.398 0.889-0.889 0.889h-8.889c-0.491 0-0.889-0.398-0.889-0.889zM19.436 9.333c0.425 0.245 0.571 0.789 0.325 1.214l-2.222 3.849-1.54-0.889 2.222-3.849c0.245-0.425 0.789-0.571 1.214-0.325zM11.436 9.333c-0.425 0.245-0.571 0.789-0.325 1.214l2.222 3.849 1.54-0.889-2.222-3.849c-0.245-0.425-0.789-0.571-1.214-0.325z"></path></svg>