<svg xmlns="http://www.w3.org/2000/svg" viewBox="0 0 32 32" width="24" height="24" style="fill:#FF9800;"><path d="M16 15.111c-7.314 0-13.333-2.58-13.333-6.222s6.020-6.222 13.333-6.222c7.314 0 13.333 2.58 13.333 6.222s-6.020 6.222-13.333 6.222zM16 13.333c6.432 0 11.556-2.196 11.556-4.444s-5.123-4.444-11.556-4.444-11.556 2.196-11.556 4.444c0 2.249 5.123 4.444 11.556 4.444z"></path><path d="M6.383 11.623l0.762 1.606c-1.776 0.842-2.7 1.851-2.7 2.771 0 2.249 5.123 4.444 11.556 4.444s11.556-2.196 11.556-4.444c0-0.973-1.036-2.044-2.996-2.906l0.716-1.627c2.534 1.116 4.058 2.689 4.058 4.534 0 3.642-6.020 6.222-13.333 6.222s-13.333-2.58-13.333-6.222c0-1.758 1.387-3.273 3.716-4.377z"></path><path d="M6.399 18.726l0.76 1.607c-1.784 0.843-2.714 1.856-2.714 2.778 0 2.249 5.124 4.444 11.556 4.444s11.556-2.196 11.556-4.444c0-0.964-1.016-2.023-2.943-2.883l0.724-1.624c2.498 1.114 3.997 2.678 3.997 4.507 0 3.642-6.020 6.222-13.333 6.222s-13.333-2.58-13.333-6.222c0-1.763 1.394-3.28 3.732-4.385z"></path></svg>