<?xml version="1.0" encoding="utf-8"?>
<!-- Generator: Adobe Illustrator 22.0.1, SVG Export Plug-In . SVG Version: 6.00 Build 0)  -->
<svg version="1.1" id="Capa_1" xmlns="http://www.w3.org/2000/svg" xmlns:xlink="http://www.w3.org/1999/xlink" x="0px" y="0px"
	 viewBox="0 0 512 512" style="enable-background:new 0 0 512 512;" xml:space="preserve">
<style type="text/css">
	.st0{fill:#68C437;}
</style>
<path class="st0" d="M256,0C114.6,0,0,114.6,0,256c0,141.4,114.6,256,256,256c141.4,0,256-114.6,256-256S397.4,0,256,0z M256,458
	c-111.6,0-202-90.4-202-202c0-111.6,90.4-202,202-202c111.6,0,202,90.4,202,202C458,367.6,367.6,458,256,458z"/>
<path class="st0" d="M229,148v81h-81c-14.9,0-27,12.1-27,27c0,14.9,12.1,27,27,27h81v81c0,14.9,12.1,27,27,27s27-12.1,27-27v-81h81
	c14.9,0,27-12.1,27-27s-12.1-27-27-27h-81v-81c0-14.9-12.1-27-27-27C241.1,121,229,133.1,229,148z"/>
</svg>
