<?xml version="1.0" encoding="utf-8"?>
<!-- Generator: Adobe Illustrator 22.0.1, SVG Export Plug-In . SVG Version: 6.00 Build 0)  -->
<svg version="1.1" id="Capa_1" xmlns="http://www.w3.org/2000/svg" xmlns:xlink="http://www.w3.org/1999/xlink" x="0px" y="0px"
	 viewBox="0 0 512 512" style="enable-background:new 0 0 512 512;" xml:space="preserve">
<style type="text/css">
	.st0{fill:#91DC5A;}
</style>
<path class="st0" d="M256,0C114.6,0,0,114.6,0,256c0,141.4,114.6,256,256,256c141.4,0,256-114.6,256-256S397.4,0,256,0z M256,445.2
	c-104.5,0-189.2-84.7-189.2-189.2c0-104.5,84.7-189.2,189.2-189.2c104.5,0,189.2,84.7,189.2,189.2
	C445.2,360.5,360.5,445.2,256,445.2z"/>
<g>
	<polygon class="st0" points="210.4,292.4 155.3,237.3 114.6,278.1 210.4,373.9 387.4,196.9 346.7,156.1 	"/>
</g>
</svg>
