<?xml version="1.0" encoding="utf-8"?>
<!-- Generator: Adobe Illustrator 22.0.1, SVG Export Plug-In . SVG Version: 6.00 Build 0)  -->
<svg version="1.1" id="Capa_1" xmlns="http://www.w3.org/2000/svg" xmlns:xlink="http://www.w3.org/1999/xlink" x="0px" y="0px"
	 viewBox="0 0 60 60" style="enable-background:new 0 0 60 60;" xml:space="preserve">
<style type="text/css">
	.st0{fill:#666666;}
	.st1{fill:#112C35;}
	.st2{fill:#CE1919;}
</style>
<path class="st0" d="M26,24h25c0.6,0,1-0.4,1-1s-0.4-1-1-1H26c-0.6,0-1,0.4-1,1S25.4,24,26,24z"/>
<path class="st0" d="M26,16h10c0.6,0,1-0.4,1-1s-0.4-1-1-1H26c-0.6,0-1,0.4-1,1S25.4,16,26,16z"/>
<path class="st0" d="M35.6,32h15.8c0.3,0,0.6-0.4,0.6-1s-0.3-1-0.6-1H35.6c-0.3,0-0.6,0.4-0.6,1S35.2,32,35.6,32z"/>
<path class="st0" d="M51.2,38H38.3c-0.4,0-0.8,0.4-0.8,1s0.3,1,0.8,1h12.9c0.4,0,0.8-0.4,0.8-1S51.7,38,51.2,38z"/>
<path class="st0" d="M50.6,46H37.9c-0.5,0-0.9,0.4-0.9,1s0.4,1,0.9,1h12.7c0.5,0,0.9-0.4,0.9-1S51.1,46,50.6,46z"/>
<path class="st1" d="M46.6,0H16.9v23.7C7.5,24.4,0,32.2,0,41.8s7.5,17.5,16.9,18.1c0.4,0,0.8,0.1,1.2,0.1H60c0-6.5,0-45.4,0-45.4
	L46.6,0z M47.2,3.4L56.9,14h-9.7V3.4z M16.9,58c-8.4-0.6-15-7.6-15-16.2s6.6-15.5,15-16.2c0.4,0,0.8-0.1,1.2-0.1c0.2,0,0.4,0,0.6,0
	c0.3,0,0.5,0,0.8,0c0.4,0,0.9,0.1,1.3,0.2l0.7,0.1c7.3,1.6,12.9,8.1,12.9,15.9c0,8.6-6.7,15.6-15.2,16.2c-0.3,0-0.7,0.1-1,0.1
	C17.7,58.1,17.3,58,16.9,58z M58.2,58H26.4c5.9-3,9.9-9.1,9.9-16.2c0-8.7-6.2-16-14.4-17.8L21.2,24c-0.5-0.1-1-0.2-1.5-0.2
	c-0.3,0-0.6,0-0.9,0V2h26.6v14h12.8C58.2,16,58.1,58,58.2,58z"/>
<path class="st2" d="M9.6,35.5l14.9,14.9c0.3,0.3,1.1,0.1,1.7-0.5c0.6-0.6,0.8-1.4,0.5-1.7L11.8,33.3c-0.3-0.3-1.1-0.1-1.7,0.5
	S9.3,35.1,9.6,35.5z"/>
<path class="st2" d="M12,50.2l14.6-14.6c0.3-0.3,0.1-1.1-0.5-1.7c-0.6-0.6-1.4-0.8-1.7-0.5L9.8,48c-0.3,0.3-0.1,1.1,0.5,1.7
	S11.6,50.5,12,50.2z"/>
</svg>
