<?xml version="1.0" encoding="utf-8"?>
<!-- Generator: Adobe Illustrator 22.0.1, SVG Export Plug-In . SVG Version: 6.00 Build 0)  -->
<svg version="1.1" id="Capa_1" xmlns="http://www.w3.org/2000/svg" xmlns:xlink="http://www.w3.org/1999/xlink" x="0px" y="0px"
	 viewBox="0 0 612 612" style="enable-background:new 0 0 612 612;" xml:space="preserve">
<g>
	<path d="M450.3,0h-9.6H219.9c-21,0-38.2,17.2-38.2,38.2v57.4H82.2c-21,0-38.2,17.2-38.2,38.2v439.9c0,21,17.2,38.2,38.2,38.2h309.9
		c21,0,38.2-17.2,38.2-38.2v-57.4h96.5c21,0,38.2-17.2,38.2-38.2V143.4v-9.6L450.3,0z M450.3,28.7l89.9,105.2h-70.8
		c-9.6,0-19.1-9.6-19.1-19.1V28.7z M411.2,573.8c0,9.6-7.6,19.1-19.1,19.1H82.2c-9.6,0-19.1-7.7-19.1-19.1V133.9
		c0-9.6,7.7-19.1,19.1-19.1h214.2v95.6c0,21,17.2,38.2,38.2,38.2h76.5V573.8z M315.5,210.3l0.2-86.1l89.6,105.4l-70.8-0.2
		C325,229.4,315.5,219.8,315.5,210.3z M545.9,478.1c0,9.6-7.7,19.1-19.1,19.1h-96.5V239.1v-9.6L315.6,95.6H306H200.8V38.2
		c0-9.6,7.6-19.1,19.1-19.1h211.3v95.6c0,21,17.2,38.2,38.2,38.2h76.5L545.9,478.1L545.9,478.1z"/>
</g>
</svg>
