<?xml version="1.0" encoding="utf-8"?>
<!-- Generator: Adobe Illustrator 22.0.1, SVG Export Plug-In . SVG Version: 6.00 Build 0)  -->
<svg version="1.1" id="Layer_1" xmlns="http://www.w3.org/2000/svg" xmlns:xlink="http://www.w3.org/1999/xlink" x="0px" y="0px"
	 viewBox="0 0 280 280" style="enable-background:new 0 0 280 280;" xml:space="preserve">
<style type="text/css">
	.st0{fill:#CCD0D2;}
	.st1{fill:#AEB1B3;}
	.st2{fill:#D1D5D7;}
</style>
<g>
	<path class="st0" d="M39.4,96.3v168.5c0,8.5,7.8,15.3,17.5,15.3h166.3c9.7,0,17.5-6.9,17.5-15.3V96.3H39.4z"/>
	<path class="st0" d="M100.6,0h78.8c9.7,0,17.5,7.8,17.5,17.5V35h-17.5v-8.8c0-4.8-3.9-8.8-8.8-8.8h-61.3c-4.8,0-8.8,3.9-8.8,8.8V35
		H83.1V17.5C83.1,7.8,91,0,100.6,0z"/>
	<path class="st1" d="M74.4,240.6c0,7.3,5.9,13.1,13.1,13.1c7.2,0,13.1-5.9,13.1-13.1V113.5H74.4V240.6z M179.4,113.5v127.2
		c0,7.2,5.9,13.1,13.1,13.1c7.2,0,13.1-5.9,13.1-13.1V113.5H179.4z M126.9,240.6c0,7.2,5.9,13.1,13.1,13.1c7.2,0,13.1-5.9,13.1-13.1
		V113.5h-26.3L126.9,240.6L126.9,240.6z"/>
	<path class="st1" d="M39.4,78.8h201.3v17.5H39.4V78.8z"/>
	<path class="st2" d="M39.4,35h201.3c9.7,0,17.5,7.8,17.5,17.5v26.3H21.9V52.5C21.9,42.8,29.7,35,39.4,35z"/>
</g>
</svg>
