<?xml version="1.0" encoding="utf-8"?>
<!-- Generator: Adobe Illustrator 22.0.1, SVG Export Plug-In . SVG Version: 6.00 Build 0)  -->
<svg version="1.1" id="Capa_1" xmlns="http://www.w3.org/2000/svg" xmlns:xlink="http://www.w3.org/1999/xlink" x="0px" y="0px"
	 viewBox="0 0 512 512" style="enable-background:new 0 0 512 512;" xml:space="preserve">
<style type="text/css">
	.st0{fill:#4C83E5;}
</style>
<path class="st0" d="M256,0C114.6,0,0,114.6,0,256c0,141.4,114.6,256,256,256c141.4,0,256-114.6,256-256S397.4,0,256,0z M256,445.2
	c-104.5,0-189.2-84.7-189.2-189.2c0-104.5,84.7-189.2,189.2-189.2c104.5,0,189.2,84.7,189.2,189.2
	C445.2,360.5,360.5,445.2,256,445.2z"/>
<path class="st0" d="M155.8,188.1c0-12.7,4.1-25.6,12.2-38.6c8.2-13,20.1-23.8,35.7-32.4c15.6-8.6,33.9-12.8,54.8-12.8
	c19.4,0,36.5,3.6,51.4,10.7c14.8,7.2,26.3,16.9,34.4,29.2c8.1,12.3,12.1,25.7,12.1,40.1c0,11.4-2.3,21.3-6.9,29.9
	c-4.6,8.6-10.1,15.9-16.4,22.2c-6.4,6.2-17.8,16.7-34.2,31.4c-4.5,4.1-8.2,7.8-10.9,10.9c-2.7,3.1-4.8,6-6.1,8.6
	c-1.3,2.6-2.4,5.2-3.1,7.8c-0.7,2.6-1.8,7.2-3.3,13.7c-2.5,13.9-10.5,20.9-23.9,20.9c-7,0-12.8-2.3-17.6-6.8
	c-4.7-4.5-7.1-11.3-7.1-20.3c0-11.2,1.7-21,5.2-29.2c3.5-8.2,8.1-15.4,13.8-21.7c5.7-6.2,13.5-13.6,23.3-22.2
	c8.6-7.5,14.7-13.1,18.6-17c3.8-3.8,7-8.1,9.6-12.7c2.6-4.7,3.9-9.8,3.9-15.2c0-10.7-4-19.7-11.9-27.1c-8-7.4-18.2-11-30.8-11
	c-14.7,0-25.5,3.7-32.5,11.1c-7,7.4-12.8,18.4-17.7,32.8c-4.5,15.1-13.2,22.7-25.9,22.7c-7.5,0-13.8-2.6-19-7.9
	C158.4,199.9,155.8,194.2,155.8,188.1z M253.7,407.9c-8.2,0-15.3-2.6-21.4-7.9c-6.1-5.3-9.1-12.7-9.1-22.2c0-8.4,2.9-15.5,8.8-21.3
	c5.9-5.7,13.1-8.6,21.7-8.6c8.4,0,15.5,2.9,21.3,8.6c5.7,5.8,8.6,12.8,8.6,21.3c0,9.4-3,16.7-9,22.1
	C268.5,405.3,261.6,407.9,253.7,407.9z"/>
</svg>
