<?xml version="1.0" encoding="utf-8"?>
<!-- Generator: Adobe Illustrator 22.0.1, SVG Export Plug-In . SVG Version: 6.00 Build 0)  -->
<svg version="1.1" id="Capa_1" xmlns="http://www.w3.org/2000/svg" xmlns:xlink="http://www.w3.org/1999/xlink" x="0px" y="0px"
	 viewBox="0 0 512 512" style="enable-background:new 0 0 512 512;" xml:space="preserve">
<style type="text/css">
	.st0{fill:#EA473B;}
</style>
<path class="st0" d="M256,0C114.6,0,0,114.6,0,256c0,141.4,114.6,256,256,256c141.4,0,256-114.6,256-256S397.4,0,256,0z M256,445.2
	c-104.5,0-189.2-84.7-189.2-189.2c0-104.5,84.7-189.2,189.2-189.2c104.5,0,189.2,84.7,189.2,189.2
	C445.2,360.5,360.5,445.2,256,445.2z"/>
<path class="st0" d="M235,104.3c-6.8,0-12.4,5.1-12.4,11.3v194.1c0,6.2,5.5,11.3,12.4,11.3H277c6.8,0,12.4-5.1,12.4-11.3V115.6
	c0-6.2-5.5-11.3-12.4-11.3L235,104.3L235,104.3z"/>
<path class="st0" d="M276.1,415.8h-40.2c-7.3,0-13.3-5.9-13.3-13.3v-40.2c0-7.3,5.9-13.3,13.3-13.3h40.2c7.3,0,13.3,5.9,13.3,13.3
	v40.2C289.4,409.9,283.5,415.8,276.1,415.8z"/>
</svg>
