<?xml version="1.0" encoding="utf-8"?>
<!-- Generator: Adobe Illustrator 22.0.1, SVG Export Plug-In . SVG Version: 6.00 Build 0)  -->
<svg version="1.1" id="Capa_1" xmlns="http://www.w3.org/2000/svg" xmlns:xlink="http://www.w3.org/1999/xlink" x="0px" y="0px"
	 viewBox="0 0 202 200" style="enable-background:new 0 0 202 200;" xml:space="preserve">
<style type="text/css">
	.st0{fill:#5BA9EF;}
	.st1{fill:#AFE7F9;}
</style>
<path class="st0" d="M185.4,21.1H14.6C6.6,21.1,0,27.7,0,35.8v128.5c0,8.1,6.6,14.6,14.6,14.6h170.7c8.1,0,14.6-6.6,14.6-14.6V35.8
	C200,27.7,193.4,21.1,185.4,21.1z M181,153.6l-43.6-45.1c-0.5-0.5-1.3-0.5-1.8-0.1L105.4,135L66.8,87.4c-0.3-0.3-0.6-0.5-1-0.5
	c-0.4,0-0.8,0.2-1,0.5L19,148.8V51.6c0-6.3,5.1-11.5,11.5-11.5h139c6.3,0,11.5,5.1,11.5,11.5L181,153.6L181,153.6z"/>
<path class="st1" d="M133.1,85.9c8.6,0,15.5-7,15.5-15.5c0-8.6-7-15.5-15.5-15.5c-8.6,0-15.5,7-15.5,15.5
	C117.6,78.9,124.5,85.9,133.1,85.9z"/>
</svg>
