<?xml version="1.0" encoding="utf-8"?>
<!-- Generator: Adobe Illustrator 22.0.1, SVG Export Plug-In . SVG Version: 6.00 Build 0)  -->
<svg version="1.1" id="Capa_1" xmlns="http://www.w3.org/2000/svg" xmlns:xlink="http://www.w3.org/1999/xlink" x="0px" y="0px"
	 viewBox="0 0 100 100" style="enable-background:new 0 0 100 100;" xml:space="preserve">
<style type="text/css">
	.st0{fill:#DD2E44;}
</style>
<g transform="matrix(0.868746 0 0 0.868746 30.8306 30.8306)">
	<g transform="matrix(1.25 0 0 -1.25 0 45)">
		<g>
			<g>
				<path class="st0" d="M25.1,18.4L50.7,44c2,2,2,5.4,0,7.4c-2,2-5.3,2-7.4,0L17.7,25.8L-7.9,51.3c-2,2-5.4,2-7.4,0
					c-2-2-2-5.4,0-7.4l25.6-25.6L-15.3-7.3c-2-2-2-5.4,0-7.4c1-1,2.4-1.5,3.7-1.5c1.3,0,2.7,0.5,3.7,1.5L17.7,11l25.6-25.6
					c1-1,2.4-1.5,3.7-1.5c1.3,0,2.7,0.5,3.7,1.5c2,2,2,5.3,0,7.4L25.1,18.4z"/>
			</g>
		</g>
	</g>
</g>
</svg>
