<?xml version="1.0" encoding="UTF-8" standalone="no"?>
<svg width="15px" height="13px" viewBox="0 0 15 13" version="1.1" xmlns="http://www.w3.org/2000/svg" xmlns:xlink="http://www.w3.org/1999/xlink">
    <!-- Generator: Sketch 39.1 (31720) - http://www.bohemiancoding.com/sketch -->
    <title>评论</title>
    <desc>Created with Sketch.</desc>
    <defs>
        <polygon id="path-1" points="14.9717859 13 0 13 0 0 14.9717859 0 14.9717859 13"></polygon>
    </defs>
    <g id="Page-1" stroke="none" stroke-width="1" fill="none" fill-rule="evenodd">
        <g id="Desktop-HD" transform="translate(-321.000000, -141.000000)">
            <g id="Group-28" transform="translate(321.000000, 141.000000)">
                <mask id="mask-2" fill="white">
                    <use xlink:href="#path-1"></use>
                </mask>
                <g id="Clip-2"></g>
                <path d="M3.09287116,1.03346848 C1.9570893,1.03346848 1.03316848,1.9573893 1.03316848,3.09317116 L1.03316848,8.38142937 C1.03316848,9.51721123 1.9570893,10.441132 3.09287116,10.441132 L5.62693587,10.441132 C5.74785168,10.441132 5.86566709,10.4835043 5.95867925,10.5610144 L7.45617508,11.8146117 L9.02498023,10.5548136 C9.11695892,10.4804038 9.23064046,10.441132 9.34845586,10.441132 L11.8794202,10.441132 C13.015202,10.441132 13.9380894,9.51721123 13.9380894,8.38142937 L13.9380894,3.09317116 C13.9380894,1.9573893 13.015202,1.03346848 11.8794202,1.03346848 L3.09287116,1.03346848 Z M7.44997427,13 C7.33215886,13 7.21434345,12.9596947 7.11823088,12.8790842 L5.43884461,11.4746005 L3.09287116,11.4746005 C1.38764817,11.4746005 -0.0003,10.0866524 -0.0003,8.38142937 L-0.0003,3.09317116 C-0.0003,1.38794817 1.38764817,0 3.09287116,0 L11.8794202,0 C13.5846432,0 14.9715579,1.38794817 14.9715579,3.09317116 L14.9715579,8.38142937 C14.9715579,10.0866524 13.5846432,11.4746005 11.8794202,11.4746005 L9.53034632,11.4746005 L7.7734499,12.8863185 C7.67940427,12.9617617 7.56468927,13 7.44997427,13 L7.44997427,13 Z" id="Fill-1" fill="#C7C7C7" mask="url(#mask-2)"></path>
                <g id="Group-27" mask="url(#mask-2)" fill="#C7C7C7">
                    <g transform="translate(2.200012, 4.000000)">
                        <path d="M2.5112,1.5256 C2.5112,2.0776 2.0632,2.5256 1.5112,2.5256 C0.9592,2.5256 0.5112,2.0776 0.5112,1.5256 C0.5112,0.9736 0.9592,0.5256 1.5112,0.5256 C2.0632,0.5256 2.5112,0.9736 2.5112,1.5256" id="Fill-4"></path>
                        <path d="M6.2374,1.5256 C6.2374,2.0776 5.7894,2.5256 5.2374,2.5256 C4.6854,2.5256 4.2374,2.0776 4.2374,1.5256 C4.2374,0.9736 4.6854,0.5256 5.2374,0.5256 C5.7894,0.5256 6.2374,0.9736 6.2374,1.5256" id="Fill-6"></path>
                        <path d="M10.0469,1.5256 C10.0469,2.0776 9.5989,2.5256 9.0469,2.5256 C8.4949,2.5256 8.0469,2.0776 8.0469,1.5256 C8.0469,0.9736 8.4949,0.5256 9.0469,0.5256 C9.5989,0.5256 10.0469,0.9736 10.0469,1.5256" id="Fill-8"></path>
                    </g>
                </g>
            </g>
        </g>
    </g>
</svg>