<?xml version="1.0" encoding="UTF-8"?>
<svg width="16px" height="13px" viewBox="0 0 16 13" version="1.1" xmlns="http://www.w3.org/2000/svg" xmlns:xlink="http://www.w3.org/1999/xlink">
    <!-- Generator: Sketch 46.1 (44463) - http://www.bohemiancoding.com/sketch -->
    <title>Page 1</title>
    <desc>Created with Sketch.</desc>
    <defs>
        <polygon id="path-1" points="13.583 0.6346 13.583 11.0576 0.2967 11.0576 0.2967 0.6346"></polygon>
    </defs>
    <g id="Page-1" stroke="none" stroke-width="1" fill="none" fill-rule="evenodd">
        <g id="Desktop-HD" transform="translate(-277.000000, -141.000000)">
            <g id="Page-1" transform="translate(277.000000, 140.000000)">
                <path d="M2.5,3.9433 C1.673,3.9433 1,4.6163 1,5.4433 L1,10.8653 C1,11.6933 1.673,12.3653 2.5,12.3653 L10.787,12.3653 C11.614,12.3653 12.287,11.6933 12.287,10.8653 L12.287,5.4433 C12.287,4.6163 11.614,3.9433 10.787,3.9433 L2.5,3.9433 Z M10.787,13.3653 L2.5,13.3653 C1.122,13.3653 0,12.2443 0,10.8653 L0,5.4433 C0,4.0653 1.122,2.9433 2.5,2.9433 L10.787,2.9433 C12.166,2.9433 13.287,4.0653 13.287,5.4433 L13.287,10.8653 C13.287,12.2443 12.166,13.3653 10.787,13.3653 L10.787,13.3653 Z" id="Fill-1" fill="#BBBABA"></path>
                <g id="Group-5" transform="translate(2.000000, 0.365700)">
                    <mask id="mask-2" fill="white">
                        <use xlink:href="#path-1"></use>
                    </mask>
                    <g id="Clip-4"></g>
                    <path d="M11.2407,10.0576 C11.9807,10.0576 12.5837,9.4546 12.5837,8.7146 L12.5837,2.9776 C12.5837,2.2366 11.9807,1.6346 11.2407,1.6346 L2.6387,1.6346 C1.8987,1.6346 1.2967,2.2366 1.2967,2.9776 L0.2967,2.9776 C0.2967,1.6856 1.3467,0.6346 2.6387,0.6346 L11.2407,0.6346 C12.5327,0.6346 13.5837,1.6856 13.5837,2.9776 L13.5837,8.7146 C13.5837,10.0066 12.5327,11.0576 11.2407,11.0576 L11.2407,10.0576 Z" id="Fill-3" fill="#BBBBBB" mask="url(#mask-2)"></path>
                </g>
                <polygon id="Fill-6" fill="#BBBBBB" points="12.5103 11.7524 7.5243 8.4354 4.8373 9.7174 3.3803 7.3024 0.7193 8.6044 0.2803 7.7054 3.7633 6.0014 5.2243 8.4244 7.6053 7.2884 13.0643 10.9204"></polygon>
                <path d="M10.8596,5.8841 C10.8596,6.4141 10.4296,6.8441 9.8996,6.8441 C9.3696,6.8441 8.9396,6.4141 8.9396,5.8841 C8.9396,5.3541 9.3696,4.9241 9.8996,4.9241 C10.4296,4.9241 10.8596,5.3541 10.8596,5.8841" id="Fill-8" fill="#BBBBBB"></path>
            </g>
        </g>
    </g>
</svg>