<?xml version="1.0" encoding="UTF-8" standalone="no"?>
<svg width="16px" height="12px" viewBox="0 0 16 12" version="1.1" xmlns="http://www.w3.org/2000/svg" xmlns:xlink="http://www.w3.org/1999/xlink">
    <!-- Generator: Sketch 39.1 (31720) - http://www.bohemiancoding.com/sketch -->
    <title>浏览</title>
    <desc>Created with Sketch.</desc>
    <defs></defs>
    <g id="Page-1" stroke="none" stroke-width="1" fill="none" fill-rule="evenodd">
        <g id="Desktop-HD" transform="translate(-339.000000, -141.000000)">
            <polygon id="Clip-2" points="347.0395 152.4217 355.079 152.4217 355.079 140.999893 339.000001 140.999893 339.000001 152.4217 347.0395 152.4217"></polygon>
            <g id="Group-29" transform="translate(339.000000, 141.000000)" fill="#C7C7C7">
                <path d="M7.82675596,10.4197 C4.82465533,10.3577 2.16585093,8.5257 1.00660425,5.7507 C2.18177191,2.8427 5.05252442,0.9377 8.17303737,1.0017 C11.175138,1.0647 13.8349375,2.8957 14.9931891,5.6707 C13.8180214,8.5787 10.9542343,10.4817 7.82675596,10.4197 M15.9703395,5.4097 C14.6887003,2.1957 11.6368466,0.0737 8.1929386,0.0017 C4.60773192,-0.0723 1.32900418,2.1327 0.0314439481,5.4887 C-0.00139308238,5.5727 -0.0023881439,5.6587 0.010547656,5.7417 C-0.00537332849,5.8307 -0.00636839002,5.9217 0.029453825,6.0117 C1.31009801,9.2257 4.36294678,11.3477 7.80585967,11.4197 C7.86556336,11.4207 7.92427199,11.4217 7.98198556,11.4217 C11.4975379,11.4217 14.6916854,9.2337 15.9693444,5.9327 C16.0011864,5.8487 16.0021815,5.7627 15.9902407,5.6797 C16.0051667,5.5907 16.0061617,5.4997 15.9703395,5.4097" id="Fill-1"></path>
                <path d="M8.0394,7.7571 C6.9114,7.7571 5.9934,6.8391 5.9934,5.7111 C5.9934,4.5821 6.9114,3.6641 8.0394,3.6641 C9.1684,3.6641 10.0864,4.5821 10.0864,5.7111 C10.0864,6.8391 9.1684,7.7571 8.0394,7.7571 M8.0394,2.6641 C6.3594,2.6641 4.9934,4.0311 4.9934,5.7111 C4.9934,7.3901 6.3594,8.7571 8.0394,8.7571 C9.7194,8.7571 11.0864,7.3901 11.0864,5.7111 C11.0864,4.0311 9.7194,2.6641 8.0394,2.6641" id="Fill-4"></path>
            </g>
        </g>
    </g>
</svg>