<?xml version="1.0" encoding="UTF-8" standalone="no"?>
<svg width="14px" height="14px" viewBox="0 0 14 14" version="1.1" xmlns="http://www.w3.org/2000/svg" xmlns:xlink="http://www.w3.org/1999/xlink">
    <!-- Generator: Sketch 39.1 (31720) - http://www.bohemiancoding.com/sketch -->
    <title>赞</title>
    <desc>Created with Sketch.</desc>
    <defs>
        <polygon id="path-1" points="13.8119 14 0 14 0 0.419 13.8119 0.419 13.8119 14"></polygon>
    </defs>
    <g id="Page-1" stroke="none" stroke-width="1" fill="none" fill-rule="evenodd">
        <g id="Desktop-HD" transform="translate(-300.000000, -140.000000)">
            <g id="Page-1" transform="translate(300.000000, 139.000000)">
                <g id="Group-3" transform="translate(0.000000, 0.581100)">
                    <mask id="mask-2" fill="white">
                        <use xlink:href="#path-1"></use>
                    </mask>
                    <g id="Clip-2"></g>
                    <path d="M2.7349,5.7214 C1.7779,5.7214 0.9999,6.4994 0.9999,7.4564 L0.9999,11.2654 C0.9999,12.2214 1.7779,13.0004 2.7349,13.0004 L11.0769,13.0004 C12.0339,13.0004 12.8119,12.2214 12.8119,11.2654 L12.8119,7.4564 C12.8119,6.4994 12.0339,5.7214 11.0769,5.7214 L9.5669,5.7214 C9.4089,5.7214 9.2599,5.6464 9.1659,5.5194 C9.0709,5.3914 9.0429,5.2274 9.0889,5.0754 C9.6369,3.2764 9.5079,2.2704 9.3819,1.8304 C9.3419,1.7114 8.9609,1.3854 8.5529,1.4214 C8.0079,1.4694 7.8129,2.2454 7.7459,2.7034 C7.3819,5.1644 5.3869,5.6854 5.3019,5.7064 C5.2619,5.7164 5.2219,5.7214 5.1819,5.7214 L2.7349,5.7214 Z M11.0769,14.0004 L2.7349,14.0004 C1.2269,14.0004 -0.0001,12.7734 -0.0001,11.2654 L-0.0001,7.4564 C-0.0001,5.9484 1.2269,4.7214 2.7349,4.7214 L5.1099,4.7214 C5.3639,4.6374 6.5179,4.1704 6.7559,2.5564 C7.0289,0.7164 8.0679,0.4514 8.5019,0.4224 C9.3579,0.3654 10.1779,0.9744 10.3439,1.5564 C10.5119,2.1454 10.6119,3.1534 10.2239,4.7214 L11.0769,4.7214 C12.5849,4.7214 13.8119,5.9484 13.8119,7.4564 L13.8119,11.2654 C13.8119,12.7734 12.5849,14.0004 11.0769,14.0004 L11.0769,14.0004 Z" id="Fill-1" fill="#C7C7C7" mask="url(#mask-2)"></path>
                </g>
                <path d="M3.3074,12.9841 C3.0314,12.9841 2.8074,12.7601 2.8074,12.4841 L2.8074,7.4001 C2.8074,7.1231 3.0314,6.9001 3.3074,6.9001 C3.5834,6.9001 3.8074,7.1231 3.8074,7.4001 L3.8074,12.4841 C3.8074,12.7601 3.5834,12.9841 3.3074,12.9841" id="Fill-4" fill="#C7C7C7"></path>
            </g>
        </g>
    </g>
</svg>