<?xml version="1.0" encoding="UTF-8"?>
<svg width="16px" height="16px" viewBox="0 0 16 16" version="1.1" xmlns="http://www.w3.org/2000/svg" xmlns:xlink="http://www.w3.org/1999/xlink">
    <!-- Generator: Sketch 45.2 (43514) - http://www.bohemiancoding.com/sketch -->
    <title>分享</title>
    <desc>Created with Sketch.</desc>
    <defs></defs>
    <g id="Page-1" stroke="none" stroke-width="1" fill="none" fill-rule="evenodd">
        <g id="详情页按钮重新设计" transform="translate(-1343.000000, -601.000000)" fill="#999999">
            <g id="Group-4" transform="translate(1343.000000, 601.000000)">
                <path d="M7.81818182,15.6363636 C3.50690909,15.6363636 0,12.1294545 0,7.81818182 C0,3.50690909 3.50690909,0 7.81818182,0 C8.11927273,0 8.36363636,0.244363636 8.36363636,0.545454545 C8.36363636,0.846545455 8.11927273,1.09090909 7.81818182,1.09090909 C4.10836364,1.09090909 1.09090909,4.10836364 1.09090909,7.81818182 C1.09090909,11.528 4.10836364,14.5454545 7.81818182,14.5454545 C11.528,14.5454545 14.5454545,11.528 14.5454545,7.81818182 C14.5454545,7.51709091 14.7898182,7.27272727 15.0909091,7.27272727 C15.392,7.27272727 15.6363636,7.51709091 15.6363636,7.81818182 C15.6363636,12.1294545 12.1294545,15.6363636 7.81818182,15.6363636" id="Fill-1"></path>
                <path d="M15.0909091,5.90836364 C14.7898182,5.90836364 14.5454545,5.664 14.5454545,5.36290909 L14.5454545,1.09090909 L10.2734545,1.09090909 C9.97236364,1.09090909 9.728,0.846545455 9.728,0.545454545 C9.728,0.244363636 9.97236364,0 10.2734545,0 L15.6363636,0 L15.6363636,5.36290909 C15.6363636,5.664 15.392,5.90836364 15.0909091,5.90836364" id="Fill-3"></path>
                <path d="M7.93963636,8.24218182 C7.8,8.24218182 7.66036364,8.18909091 7.55418182,8.08218182 C7.34109091,7.86909091 7.34109091,7.52436364 7.55418182,7.31127273 L14.7054545,0.16 C14.9185455,-0.0530909091 15.2632727,-0.0530909091 15.4763636,0.16 C15.6894545,0.373090909 15.6894545,0.717818182 15.4763636,0.930909091 L8.32509091,8.08218182 C8.21890909,8.18909091 8.07927273,8.24218182 7.93963636,8.24218182" id="Fill-5"></path>
            </g>
        </g>
    </g>
</svg>