<?xml version="1.0" encoding="UTF-8" standalone="no"?>
<svg width="14px" height="13px" viewBox="0 0 14 13" version="1.1" xmlns="http://www.w3.org/2000/svg" xmlns:xlink="http://www.w3.org/1999/xlink">
    <!-- Generator: Sketch 39.1 (31720) - http://www.bohemiancoding.com/sketch -->
    <title>jubaoqian</title>
    <desc>Created with Sketch.</desc>
    <defs></defs>
    <g id="Page-1" stroke="none" stroke-width="1" fill="none" fill-rule="evenodd">
        <g id="Desktop-HD" transform="translate(-1283.000000, -131.000000)">
            <g id="举报默认" transform="translate(1283.000000, 131.000000)">
                <g id="图层_1">
                    <path d="M0.4,9.9 L5.4,1.2 C6.1,0 7.9,0 8.6,1.2 L13.6,9.9 C14.3,11.1 13.4,12.6 12,12.6 L2,12.6 C0.6,12.7 -0.3,11.1 0.4,9.9 L0.4,9.9 Z" id="XMLID_1695_" fill="#DDDDDE"></path>
                    <path d="M7,8.4 L7,8.4 C6.4,8.4 6,8 6,7.4 L6,3.4 C6,2.9 6.4,2.4 7,2.4 L7,2.4 C7.6,2.4 8,2.8 8,3.4 L8,7.4 C8,8 7.6,8.4 7,8.4 L7,8.4 Z" id="XMLID_1748_" fill="#FFFFFF"></path>
                    <circle id="XMLID_1749_" fill="#FFFFFF" cx="7" cy="10.2" r="1"></circle>
                </g>
            </g>
        </g>
    </g>
</svg>