<?xml version="1.0" encoding="utf-8"?>
<!-- Generator: Adobe Illustrator 19.0.0, SVG Export Plug-In . SVG Version: 6.00 Build 0)  -->
<svg version="1.1" id="图层_1" xmlns="http://www.w3.org/2000/svg" xmlns:xlink="http://www.w3.org/1999/xlink" x="0px" y="0px"
	 viewBox="0 0 17.8 20.5" style="enable-background:new 0 0 17.8 20.5;" xml:space="preserve">
<style type="text/css">
	.st0{fill:none;stroke:#FFD100;stroke-width:1.5;stroke-linecap:round;stroke-linejoin:round;stroke-miterlimit:10;}
	.st1{fill:none;stroke:#FFD100;stroke-width:1.5;stroke-miterlimit:10;}
</style>
<g id="XMLID_1861_">
	<path id="XMLID_2550_" class="st0" d="M0.8,14.7c0,1,3.6,1.8,8.1,1.8s8.1-0.8,8.1-1.8l-0.1-0.2c-1.4-1-1.4-3.3-1.4-3.3l0,0
		c0,0,0-4.2,0-4.2c0-3.4-3-6.2-6.7-6.2h0C5.2,0.8,2.2,3.6,2.2,7v4.2c0,0,0.1,2.3-1.3,3.3"/>
	<path id="XMLID_2511_" class="st1" d="M12.3,16.5c0,1.8-1.4,3.2-3.2,3.2s-3.2-1.4-3.2-3.2"/>
</g>
</svg>
