<?xml version="1.0" encoding="utf-8"?>
<!-- Generator: Adobe Illustrator 19.0.0, SVG Export Plug-In . SVG Version: 6.00 Build 0)  -->
<svg version="1.1" id="图层_1" xmlns="http://www.w3.org/2000/svg" xmlns:xlink="http://www.w3.org/1999/xlink" x="0px" y="0px"
	 viewBox="0 0 23.6 20.5" style="enable-background:new 0 0 23.6 20.5;" xml:space="preserve">
<style type="text/css">
	.st0{fill:none;stroke:#FFD100;stroke-width:1.5;stroke-linecap:round;stroke-linejoin:round;stroke-miterlimit:10;}
</style>
<g id="XMLID_2551_">
	<path id="XMLID_2977_" class="st0" d="M15.1,16.4h1.7v0c0,0,0.1,0,0.1,0c3.2,0,5.8-2.6,5.8-5.8c0-2.9-2.1-5.3-4.9-5.7
		c-1-2.4-3.4-4.2-6.2-4.2c-3.4,0-6.1,2.5-6.6,5.7C2.6,7,0.9,9,0.9,11.4c0,2.8,2.2,5,5,5c0.1,0,0.2,0,0.2,0v0h2"/>
	<polyline id="XMLID_2975_" class="st0" points="9.1,11.3 11.7,8.7 14.3,11.3 	"/>
	<line id="XMLID_2973_" class="st0" x1="11.7" y1="9" x2="11.7" y2="19.7"/>
</g>
</svg>
