<?xml version="1.0" encoding="UTF-8"?>
<svg width="20px" height="20px" viewBox="0 0 20 20" version="1.1" xmlns="http://www.w3.org/2000/svg" xmlns:xlink="http://www.w3.org/1999/xlink">
    <!-- Generator: Sketch 45.2 (43514) - http://www.bohemiancoding.com/sketch -->
    <title>收藏置灰</title>
    <desc>Created with Sketch.</desc>
    <defs></defs>
    <g id="Page-1" stroke="none" stroke-width="1" fill="none" fill-rule="evenodd">
        <g id="详情页按钮重新设计" transform="translate(-1402.000000, -564.000000)" fill="#BBBBBB">
            <g id="Group-3-Copy-3" transform="translate(1402.000000, 564.000000)">
                <path d="M9.78590909,0.338272727 L9.785,0.338272727 C9.19227273,0.338272727 8.66318182,0.668272727 8.40136364,1.19918182 L6.21409091,5.62645455 L1.32409091,6.33645455 C0.738636364,6.421 0.260454545,6.82463636 0.0768181818,7.38736364 C-0.105909091,7.951 0.0422727273,8.55645455 0.467727273,8.971 L4.00590909,12.4164545 L3.17045455,17.2846364 C3.07045455,17.8682727 3.30681818,18.4473636 3.78772727,18.7955455 C4.05772727,18.991 4.37318182,19.0900909 4.69136364,19.0900909 C4.93772727,19.0900909 5.185,19.031 5.41227273,18.911 L9.78590909,16.6137273 L14.1586364,18.911 C14.3877273,19.031 14.635,19.091 14.8813636,19.091 C15.2004545,19.091 15.5168182,18.991 15.7877273,18.7946364 C16.2659091,18.4464545 16.5013636,17.8673636 16.4013636,17.2837273 L15.5659091,12.4173636 L19.105,8.971 C19.5295455,8.55645455 19.6777273,7.95009091 19.495,7.38736364 C19.3122727,6.82463636 18.835,6.42190909 18.2486364,6.33645455 L13.3577273,5.62554545 L11.1722727,1.19918182 L11.1722727,1.19827273 C10.9095455,0.668272727 10.3786364,0.338272727 9.78590909,0.338272727 M9.78590909,1.70190909 C9.86045455,1.70190909 9.91681818,1.73736364 9.94954545,1.80281818 L12.1340909,6.22918182 C12.3331818,6.63190909 12.7177273,6.911 13.1613636,6.97554545 L18.0513636,7.68645455 C18.125,7.69645455 18.1759091,7.73918182 18.1977273,7.80827273 C18.2213636,7.87918182 18.205,7.94372727 18.1540909,7.99372727 L14.615,11.4400909 C14.2931818,11.7537273 14.1459091,12.2055455 14.2222727,12.6482727 L15.0577273,17.5128182 C15.0695455,17.5855455 15.045,17.6491818 14.9859091,17.691 C14.9531818,17.7155455 14.9177273,17.7273636 14.8813636,17.7273636 C14.8522727,17.7273636 14.8231818,17.7191818 14.7922727,17.7037273 L10.4195455,15.4064545 C10.2213636,15.3019091 10.0040909,15.2500909 9.78590909,15.2500909 C9.56772727,15.2500909 9.35045455,15.3019091 9.15227273,15.4064545 L4.77227273,17.7064545 C4.74772727,17.7200909 4.72045455,17.7264545 4.69136364,17.7264545 C4.655,17.7264545 4.61954545,17.7137273 4.58681818,17.6900909 C4.52772727,17.6482727 4.50227273,17.5855455 4.515,17.5155455 L5.34954545,12.6473636 C5.42590909,12.2046364 5.27863636,11.7528182 4.95681818,11.4391818 L1.41863636,7.99372727 C1.36681818,7.94281818 1.35136364,7.87918182 1.37409091,7.80918182 C1.39590909,7.74009091 1.44863636,7.69645455 1.52045455,7.68645455 L6.40954545,6.97645455 C6.85409091,6.91190909 7.23772727,6.63281818 7.43681818,6.231 L9.62409091,1.80281818 C9.65590909,1.73736364 9.71227273,1.70190909 9.78590909,1.70190909" id="Fill-1"></path>
            </g>
        </g>
    </g>
</svg>