<?xml version="1.0" encoding="utf-8"?>
<!-- Generator: Adobe Illustrator 19.0.0, SVG Export Plug-In . SVG Version: 6.00 Build 0)  -->
<svg version="1.1" id="图层_1" xmlns="http://www.w3.org/2000/svg" xmlns:xlink="http://www.w3.org/1999/xlink" x="0px" y="0px"
	 viewBox="0 0 16 16" style="enable-background:new 0 0 16 16;" xml:space="preserve">
<style type="text/css">
	.st0{fill:#BCBCBB;}
</style>
<path id="XMLID_144_" class="st0" d="M4,15.5c-0.3,0-0.5-0.1-0.7-0.2C2.9,15,2.7,14.5,2.8,14l0.6-3.8c0-0.1,0-0.1-0.1-0.2L0.6,7.4
	C0.3,7.1,0.2,6.6,0.3,6.2s0.5-0.8,1-0.8l3.8-0.5c0.1,0,0.1-0.1,0.2-0.1l1.7-3.4C7.1,0.8,7.5,0.6,8,0.6h0c0.5,0,0.9,0.3,1.1,0.7v0
	l1.7,3.4c0,0.1,0.1,0.1,0.2,0.1l3.8,0.5c0.5,0.1,0.8,0.4,1,0.8c0.1,0.4,0,0.9-0.3,1.3l-2.7,2.7c-0.1,0.1-0.1,0.1-0.1,0.2l0.6,3.8
	c0.1,0.5-0.1,0.9-0.5,1.2c-0.4,0.3-0.9,0.3-1.3,0.1l-3.4-1.8c-0.1,0-0.1,0-0.2,0l-3.4,1.8C4.4,15.4,4.2,15.5,4,15.5z M8,1.6L8,1.6
	c-0.1,0-0.1,0-0.2,0.1L6.1,5.1C5.9,5.5,5.6,5.7,5.2,5.8L1.4,6.3c-0.1,0-0.2,0.1-0.2,0.2c0,0.1,0,0.1,0.1,0.2L4,9.4
	c0.3,0.3,0.4,0.7,0.4,1.1l-0.6,3.8c0,0.1,0.1,0.2,0.1,0.2c0,0,0.1,0.1,0.2,0l3.4-1.8c0.4-0.2,0.8-0.2,1.1,0l3.4,1.8
	c0.1,0.1,0.2,0,0.2,0c0,0,0.1-0.1,0.1-0.2l-0.6-3.8C11.6,10,11.7,9.6,12,9.4l2.7-2.7c0.1-0.1,0.1-0.2,0.1-0.2c0-0.1-0.1-0.1-0.2-0.2
	l-3.8-0.5c-0.4-0.1-0.7-0.3-0.9-0.7L8.2,1.7C8.2,1.6,8.1,1.6,8,1.6z"/>
</svg>
