<?xml version="1.0" encoding="UTF-8" standalone="no"?>
<svg width="22px" height="21px" viewBox="0 0 22 21" version="1.1" xmlns="http://www.w3.org/2000/svg" xmlns:xlink="http://www.w3.org/1999/xlink">
    <!-- Generator: Sketch 39.1 (31720) - http://www.bohemiancoding.com/sketch -->
    <title>收藏默认</title>
    <desc>Created with Sketch.</desc>
    <defs></defs>
    <g id="Page-1" stroke="none" stroke-width="1" fill="none" fill-rule="evenodd">
        <g id="Desktop-HD" transform="translate(-733.000000, -353.000000)" fill="#999999">
            <g id="Group-3" transform="translate(733.000000, 352.627900)">
                <path d="M10.7645,0.3721 L10.7635,0.3721 C10.1115,0.3721 9.5295,0.7351 9.2415,1.3191 L6.8355,6.1891 L1.4565,6.9701 C0.8125,7.0631 0.2865,7.5071 0.0845,8.1261 C-0.1165,8.7461 0.0465,9.4121 0.5145,9.8681 L4.4065,13.6581 L3.4875,19.0131 C3.3775,19.6551 3.6375,20.2921 4.1665,20.6751 C4.4635,20.8901 4.8105,20.9991 5.1605,20.9991 C5.4315,20.9991 5.7035,20.9341 5.9535,20.8021 L10.7645,18.2751 L15.5745,20.8021 C15.8265,20.9341 16.0985,21.0001 16.3695,21.0001 C16.7205,21.0001 17.0685,20.8901 17.3665,20.6741 C17.8925,20.2911 18.1515,19.6541 18.0415,19.0121 L17.1225,13.6591 L21.0155,9.8681 C21.4825,9.4121 21.6455,8.7451 21.4445,8.1261 C21.2435,7.5071 20.7185,7.0641 20.0735,6.9701 L14.6935,6.1881 L12.2895,1.3191 L12.2895,1.3181 C12.0005,0.7351 11.4165,0.3721 10.7645,0.3721 M10.7645,1.8721 C10.8465,1.8721 10.9085,1.9111 10.9445,1.9831 L13.3475,6.8521 C13.5665,7.2951 13.9895,7.6021 14.4775,7.6731 L19.8565,8.4551 C19.9375,8.4661 19.9935,8.5131 20.0175,8.5891 C20.0435,8.6671 20.0255,8.7381 19.9695,8.7931 L16.0765,12.5841 C15.7225,12.9291 15.5605,13.4261 15.6445,13.9131 L16.5635,19.2641 C16.5765,19.3441 16.5495,19.4141 16.4845,19.4601 C16.4485,19.4871 16.4095,19.5001 16.3695,19.5001 C16.3375,19.5001 16.3055,19.4911 16.2715,19.4741 L11.4615,16.9471 C11.2435,16.8321 11.0045,16.7751 10.7645,16.7751 C10.5245,16.7751 10.2855,16.8321 10.0675,16.9471 L5.2495,19.4771 C5.2225,19.4921 5.1925,19.4991 5.1605,19.4991 C5.1205,19.4991 5.0815,19.4851 5.0455,19.4591 C4.9805,19.4131 4.9525,19.3441 4.9665,19.2671 L5.8845,13.9121 C5.9685,13.4251 5.8065,12.9281 5.4525,12.5831 L1.5605,8.7931 C1.5035,8.7371 1.4865,8.6671 1.5115,8.5901 C1.5355,8.5141 1.5935,8.4661 1.6725,8.4551 L7.0505,7.6741 C7.5395,7.6031 7.9615,7.2961 8.1805,6.8541 L10.5865,1.9831 C10.6215,1.9111 10.6835,1.8721 10.7645,1.8721" id="Fill-1"></path>
            </g>
        </g>
    </g>
</svg>