<?xml version="1.0" encoding="UTF-8" standalone="no"?>
<svg width="24px" height="22px" viewBox="0 0 24 22" version="1.1" xmlns="http://www.w3.org/2000/svg" xmlns:xlink="http://www.w3.org/1999/xlink">
    <!-- Generator: Sketch 39.1 (31720) - http://www.bohemiancoding.com/sketch -->
    <title>下载默认</title>
    <desc>Created with Sketch.</desc>
    <defs></defs>
    <g id="Page-1" stroke="none" stroke-width="1" fill="none" fill-rule="evenodd">
        <g id="Desktop-HD" transform="translate(-914.000000, -352.000000)" fill="#999999">
            <g id="下载默认" transform="translate(914.000000, 352.000000)">
                <path d="M17.3,17.5 L17.1,17.5 C16.7,17.5 16.3,17.2 16.3,16.7 C16.3,16.2 16.6,15.9 17.1,15.9 L17.3,15.9 C20.2,15.9 22.5,13.6 22.5,10.7 C22.5,8.1 20.6,6 18,5.6 L17.6,5.5 L17.4,5.1 C16.5,3 14.2,1.5 11.8,1.5 C8.8,1.5 6.3,3.7 5.7,6.7 L5.6,7.2 L5.1,7.3 C3,7.7 1.5,9.5 1.5,11.5 C1.5,13.9 3.5,15.9 5.9,15.9 L6,15.9 C6.4,15.9 6.8,16.2 6.8,16.7 C6.8,17.2 6.5,17.5 6,17.5 L5.8,17.5 C2.6,17.4 0,14.8 0,11.5 C0,8.9 1.8,6.6 4.3,5.9 C5.2,2.4 8.2,0 11.7,0 C14.7,0 17.4,1.7 18.6,4.4 C21.8,5 24,7.7 24,10.8 C24,14.6 21.1,17.5 17.3,17.5" id="Fill-1"></path>
                <path d="M11.9,21.3 L8.8,18.2 C8.5,17.9 8.5,17.4 8.8,17.1 C9.1,16.8 9.6,16.8 9.9,17.1 L12,19.2 L14.1,17.1 C14.4,16.8 14.9,16.8 15.2,17.1 C15.5,17.4 15.5,17.9 15.2,18.2 L11.9,21.3 Z" id="Fill-3"></path>
                <path d="M11.9,20.6 C11.5,20.6 11.1,20.3 11.1,19.8 L11.1,9.3 C11.1,8.9 11.4,8.5 11.9,8.5 C12.3,8.5 12.6,8.8 12.6,9.3 L12.6,19.9 C12.6,20.3 12.3,20.6 11.9,20.6" id="Fill-5"></path>
            </g>
        </g>
    </g>
</svg>