<?xml version="1.0" encoding="UTF-8"?>
<svg width="20px" height="18px" viewBox="0 0 20 18" version="1.1" xmlns="http://www.w3.org/2000/svg" xmlns:xlink="http://www.w3.org/1999/xlink">
    <!-- Generator: Sketch 45.2 (43514) - http://www.bohemiancoding.com/sketch -->
    <title>下载置灰</title>
    <desc>Created with Sketch.</desc>
    <defs></defs>
    <g id="Page-1" stroke="none" stroke-width="1" fill="none" fill-rule="evenodd">
        <g id="详情页按钮重新设计" transform="translate(-1372.000000, -564.000000)" fill="#BBBBBB">
            <g id="下载默认-copy-2" transform="translate(1372.000000, 564.000000)">
                <path d="M14.4166667,14.5833333 L14.25,14.5833333 C13.9166667,14.5833333 13.5833333,14.3333333 13.5833333,13.9166667 C13.5833333,13.5 13.8333333,13.25 14.25,13.25 L14.4166667,13.25 C16.8333333,13.25 18.75,11.3333333 18.75,8.91666667 C18.75,6.75 17.1666667,5 15,4.66666667 L14.6666667,4.58333333 L14.5,4.25 C13.75,2.5 11.8333333,1.25 9.83333333,1.25 C7.33333333,1.25 5.25,3.08333333 4.75,5.58333333 L4.66666667,6 L4.25,6.08333333 C2.5,6.41666667 1.25,7.91666667 1.25,9.58333333 C1.25,11.5833333 2.91666667,13.25 4.91666667,13.25 L5,13.25 C5.33333333,13.25 5.66666667,13.5 5.66666667,13.9166667 C5.66666667,14.3333333 5.41666667,14.5833333 5,14.5833333 L4.83333333,14.5833333 C2.16666667,14.5 0,12.3333333 0,9.58333333 C0,7.41666667 1.5,5.5 3.58333333,4.91666667 C4.33333333,2 6.83333333,0 9.75,0 C12.25,0 14.5,1.41666667 15.5,3.66666667 C18.1666667,4.16666667 20,6.41666667 20,9 C20,12.1666667 17.5833333,14.5833333 14.4166667,14.5833333" id="Fill-1"></path>
                <path d="M9.91666667,17.75 L7.33333333,15.1666667 C7.08333333,14.9166667 7.08333333,14.5 7.33333333,14.25 C7.58333333,14 8,14 8.25,14.25 L10,16 L11.75,14.25 C12,14 12.4166667,14 12.6666667,14.25 C12.9166667,14.5 12.9166667,14.9166667 12.6666667,15.1666667 L9.91666667,17.75 Z" id="Fill-3"></path>
                <path d="M9.91666667,17.1666667 C9.58333333,17.1666667 9.25,16.9166667 9.25,16.5 L9.25,7.75 C9.25,7.41666667 9.5,7.08333333 9.91666667,7.08333333 C10.25,7.08333333 10.5,7.33333333 10.5,7.75 L10.5,16.5833333 C10.5,16.9166667 10.25,17.1666667 9.91666667,17.1666667" id="Fill-5"></path>
            </g>
        </g>
    </g>
</svg>