<?xml version="1.0" encoding="UTF-8" standalone="no"?>
<svg width="914px" height="480px" viewBox="0 0 914 480" version="1.1" xmlns="http://www.w3.org/2000/svg" xmlns:xlink="http://www.w3.org/1999/xlink" xmlns:sketch="http://www.bohemiancoding.com/sketch/ns">
    <!-- Generator: Sketch 3.4.4 (17249) - http://www.bohemiancoding.com/sketch -->
    <title>Group</title>
    <desc>Created with Sketch.</desc>
    <defs>
        <rect id="path-1" x="403" y="181" width="121" height="122"></rect>
    </defs>
    <g id="专栏发现" stroke="none" stroke-width="1" fill="none" fill-rule="evenodd" sketch:type="MSPage">
        <g id="专栏入口页_1366" sketch:type="MSArtboardGroup" transform="translate(-226.000000, -4.000000)">
            <g id="Group" sketch:type="MSLayerGroup">
                <g transform="translate(226.000000, 3.000000)">
                    <rect id="Rectangle-1988-Copy-2" fill="#53d3f7" sketch:type="MSShapeGroup" transform="translate(317.025013, 33.075243) rotate(-315.000000) translate(-317.025013, -33.075243) " x="316.225363" y="-11.9247568" width="2" height="90.0689655" rx="4"></rect>
                    <rect id="Rectangle-1988-Copy-3" fill="#53d3f7" sketch:type="MSShapeGroup" transform="translate(405.742294, 165.742294) rotate(-315.000000) translate(-405.742294, -165.742294) " x="405.342469" y="95.7958924" width="1" height="140" rx="4"></rect>
                    <rect id="Rectangle-1988-Copy-5" fill="#53d3f7" sketch:type="MSShapeGroup" transform="translate(219.588567, 316.588567) rotate(-315.000000) translate(-219.588567, -316.588567) " x="219.188742" y="282.214907" width="1" height="69" rx="4"></rect>
                    <circle id="Oval-795" stroke="#53d3f7" stroke-width="0.8" sketch:type="MSShapeGroup" cx="457" cy="237" r="72"></circle>
                    <g id="Rectangle-1986-Copy">
                        <use fill="#53d3f7" fill-rule="evenodd" sketch:type="MSShapeGroup" xlink:href="#path-1"></use>
                        <use fill="none" xlink:href="#path-1"></use>
                    </g>
                    <g id="Oval-685-+-Oval-685-Copy" transform="translate(613.000000, 126.000000)" sketch:type="MSShapeGroup">
                        <circle id="Oval-685" fill="#53d3f7" cx="10" cy="10" r="8"></circle>
                        <circle id="Oval-685-Copy" stroke="#2A2A2A" stroke-width="0.8" cx="8" cy="8" r="8"></circle>
                    </g>
                    <g id="Oval-685-+-Oval-685-Copy-2" transform="translate(226.000000, 295.000000)" sketch:type="MSShapeGroup">
                        <circle id="Oval-685" fill="#53d3f7" cx="10" cy="10" r="8"></circle>
                        <circle id="Oval-685-Copy" stroke="#000000" stroke-width="0.8" cx="8" cy="8" r="8"></circle>
                    </g>
                    <g id="Oval-685-+-Oval-685-Copy-3" transform="translate(226.000000, 75.000000)" sketch:type="MSShapeGroup">
                        <circle id="Oval-685" fill="#53d3f7" cx="10" cy="10" r="8"></circle>
                        <circle id="Oval-685-Copy" stroke="#000000" stroke-width="0.8" cx="8" cy="8" r="8"></circle>
                    </g>
                    <circle id="Oval-685" fill="#53d3f7" sketch:type="MSShapeGroup" cx="705.5" cy="252.5" r="3.5"></circle>
                    <circle id="Oval-685-Copy-6" fill="#53d3f7" sketch:type="MSShapeGroup" cx="512" cy="140" r="3"></circle>
                    <circle id="Oval-685-Copy-7" fill="#53d3f7" sketch:type="MSShapeGroup" cx="426.5" cy="156.5" r="3.5"></circle>
                    <circle id="Oval-685-Copy-8" fill="#53d3f7" sketch:type="MSShapeGroup" cx="431.5" cy="314.5" r="1.5"></circle>
                    <circle id="Oval-685-Copy-2" stroke="#53d3f7" stroke-width="1.6" sketch:type="MSShapeGroup" cx="788.5" cy="153.5" r="3.5"></circle>
                    <circle id="Oval-685-Copy-3" fill="#53d3f7" sketch:type="MSShapeGroup" cx="298.5" cy="129.5" r="3.5"></circle>
                    <circle id="Oval-685-Copy-4" fill="#53d3f7" sketch:type="MSShapeGroup" cx="909" cy="451" r="5"></circle>
                    <circle id="Oval-685-Copy-9" fill="#53d3f7" sketch:type="MSShapeGroup" cx="5" cy="278" r="5"></circle>
                    <path d="M699.775888,125.165742 C700.328173,125.165742 700.775888,124.718027 700.775888,124.165742 C700.775888,123.613458 700.328173,123.165742 699.775888,123.165742 C699.223604,123.165742 698.775888,123.613458 698.775888,124.165742 C698.775888,124.718027 699.223604,125.165742 699.775888,125.165742 Z M704.018529,125.165742 C704.570814,125.165742 705.018529,124.718027 705.018529,124.165742 C705.018529,123.613458 704.570814,123.165742 704.018529,123.165742 C703.466244,123.165742 703.018529,123.613458 703.018529,124.165742 C703.018529,124.718027 703.466244,125.165742 704.018529,125.165742 Z M708.968277,125.872849 C709.520561,125.872849 709.968277,125.425134 709.968277,124.872849 C709.968277,124.320564 709.520561,123.872849 708.968277,123.872849 C708.415992,123.872849 707.968277,124.320564 707.968277,124.872849 C707.968277,125.425134 708.415992,125.872849 708.968277,125.872849 Z M713.918024,125.165742 C714.470309,125.165742 714.918024,124.718027 714.918024,124.165742 C714.918024,123.613458 714.470309,123.165742 713.918024,123.165742 C713.365739,123.165742 712.918024,123.613458 712.918024,124.165742 C712.918024,124.718027 713.365739,125.165742 713.918024,125.165742 Z M718.867772,125.872849 C719.420056,125.872849 719.867772,125.425134 719.867772,124.872849 C719.867772,124.320564 719.420056,123.872849 718.867772,123.872849 C718.315487,123.872849 717.867772,124.320564 717.867772,124.872849 C717.867772,125.425134 718.315487,125.872849 718.867772,125.872849 Z M699.068782,130.11549 C699.621066,130.11549 700.068782,129.667774 700.068782,129.11549 C700.068782,128.563205 699.621066,128.11549 699.068782,128.11549 C698.516497,128.11549 698.068782,128.563205 698.068782,129.11549 C698.068782,129.667774 698.516497,130.11549 699.068782,130.11549 Z M704.725636,130.11549 C705.277921,130.11549 705.725636,129.667774 705.725636,129.11549 C705.725636,128.563205 705.277921,128.11549 704.725636,128.11549 C704.173351,128.11549 703.725636,128.563205 703.725636,129.11549 C703.725636,129.667774 704.173351,130.11549 704.725636,130.11549 Z M708.968277,130.11549 C709.520561,130.11549 709.968277,129.667774 709.968277,129.11549 C709.968277,128.563205 709.520561,128.11549 708.968277,128.11549 C708.415992,128.11549 707.968277,128.563205 707.968277,129.11549 C707.968277,129.667774 708.415992,130.11549 708.968277,130.11549 Z M713.918024,130.822597 C714.470309,130.822597 714.918024,130.374881 714.918024,129.822597 C714.918024,129.270312 714.470309,128.822597 713.918024,128.822597 C713.365739,128.822597 712.918024,129.270312 712.918024,129.822597 C712.918024,130.374881 713.365739,130.822597 713.918024,130.822597 Z M718.867772,130.11549 C719.420056,130.11549 719.867772,129.667774 719.867772,129.11549 C719.867772,128.563205 719.420056,128.11549 718.867772,128.11549 C718.315487,128.11549 717.867772,128.563205 717.867772,129.11549 C717.867772,129.667774 718.315487,130.11549 718.867772,130.11549 Z M699.775888,135.065237 C700.328173,135.065237 700.775888,134.617522 700.775888,134.065237 C700.775888,133.512952 700.328173,133.065237 699.775888,133.065237 C699.223604,133.065237 698.775888,133.512952 698.775888,134.065237 C698.775888,134.617522 699.223604,135.065237 699.775888,135.065237 Z M704.018529,135.065237 C704.570814,135.065237 705.018529,134.617522 705.018529,134.065237 C705.018529,133.512952 704.570814,133.065237 704.018529,133.065237 C703.466244,133.065237 703.018529,133.512952 703.018529,134.065237 C703.018529,134.617522 703.466244,135.065237 704.018529,135.065237 Z M709.675383,135.065237 C710.227668,135.065237 710.675383,134.617522 710.675383,134.065237 C710.675383,133.512952 710.227668,133.065237 709.675383,133.065237 C709.123099,133.065237 708.675383,133.512952 708.675383,134.065237 C708.675383,134.617522 709.123099,135.065237 709.675383,135.065237 Z M713.918024,135.065237 C714.470309,135.065237 714.918024,134.617522 714.918024,134.065237 C714.918024,133.512952 714.470309,133.065237 713.918024,133.065237 C713.365739,133.065237 712.918024,133.512952 712.918024,134.065237 C712.918024,134.617522 713.365739,135.065237 713.918024,135.065237 Z M718.160665,135.065237 C718.712949,135.065237 719.160665,134.617522 719.160665,134.065237 C719.160665,133.512952 718.712949,133.065237 718.160665,133.065237 C717.60838,133.065237 717.160665,133.512952 717.160665,134.065237 C717.160665,134.617522 717.60838,135.065237 718.160665,135.065237 Z M699.068782,140.014985 C699.621066,140.014985 700.068782,139.567269 700.068782,139.014985 C700.068782,138.4627 699.621066,138.014985 699.068782,138.014985 C698.516497,138.014985 698.068782,138.4627 698.068782,139.014985 C698.068782,139.567269 698.516497,140.014985 699.068782,140.014985 Z M704.725636,140.014985 C705.277921,140.014985 705.725636,139.567269 705.725636,139.014985 C705.725636,138.4627 705.277921,138.014985 704.725636,138.014985 C704.173351,138.014985 703.725636,138.4627 703.725636,139.014985 C703.725636,139.567269 704.173351,140.014985 704.725636,140.014985 Z M708.968277,140.014985 C709.520561,140.014985 709.968277,139.567269 709.968277,139.014985 C709.968277,138.4627 709.520561,138.014985 708.968277,138.014985 C708.415992,138.014985 707.968277,138.4627 707.968277,139.014985 C707.968277,139.567269 708.415992,140.014985 708.968277,140.014985 Z M713.918024,139.307878 C714.470309,139.307878 714.918024,138.860163 714.918024,138.307878 C714.918024,137.755593 714.470309,137.307878 713.918024,137.307878 C713.365739,137.307878 712.918024,137.755593 712.918024,138.307878 C712.918024,138.860163 713.365739,139.307878 713.918024,139.307878 Z M718.867772,140.014985 C719.420056,140.014985 719.867772,139.567269 719.867772,139.014985 C719.867772,138.4627 719.420056,138.014985 718.867772,138.014985 C718.315487,138.014985 717.867772,138.4627 717.867772,139.014985 C717.867772,139.567269 718.315487,140.014985 718.867772,140.014985 Z M699.775888,144.964732 C700.328173,144.964732 700.775888,144.517017 700.775888,143.964732 C700.775888,143.412447 700.328173,142.964732 699.775888,142.964732 C699.223604,142.964732 698.775888,143.412447 698.775888,143.964732 C698.775888,144.517017 699.223604,144.964732 699.775888,144.964732 Z M704.018529,144.964732 C704.570814,144.964732 705.018529,144.517017 705.018529,143.964732 C705.018529,143.412447 704.570814,142.964732 704.018529,142.964732 C703.466244,142.964732 703.018529,143.412447 703.018529,143.964732 C703.018529,144.517017 703.466244,144.964732 704.018529,144.964732 Z M708.968277,144.257625 C709.520561,144.257625 709.968277,143.80991 709.968277,143.257625 C709.968277,142.705341 709.520561,142.257625 708.968277,142.257625 C708.415992,142.257625 707.968277,142.705341 707.968277,143.257625 C707.968277,143.80991 708.415992,144.257625 708.968277,144.257625 Z M713.918024,144.964732 C714.470309,144.964732 714.918024,144.517017 714.918024,143.964732 C714.918024,143.412447 714.470309,142.964732 713.918024,142.964732 C713.365739,142.964732 712.918024,143.412447 712.918024,143.964732 C712.918024,144.517017 713.365739,144.964732 713.918024,144.964732 Z M718.867772,144.257625 C719.420056,144.257625 719.867772,143.80991 719.867772,143.257625 C719.867772,142.705341 719.420056,142.257625 718.867772,142.257625 C718.315487,142.257625 717.867772,142.705341 717.867772,143.257625 C717.867772,143.80991 718.315487,144.257625 718.867772,144.257625 Z" id="Oval-685-Copy-15" fill="#53d3f7" sketch:type="MSShapeGroup" transform="translate(709.264318, 134.264318) rotate(-315.000000) translate(-709.264318, -134.264318) "></path>
                    <circle id="Oval-685-Copy-5" fill="#53d3f7" sketch:type="MSShapeGroup" cx="154.5" cy="6.5" r="3.5"></circle>
                    <g id="Oval-701-+-Oval-701" transform="translate(504.000000, 129.000000)" sketch:type="MSShapeGroup">
                        <path d="M62.626245,49.3173309 C64.7850226,45.0094452 66,40.1466092 66,35 C66,17.326888 51.673112,3 34,3 C16.326888,3 2,17.326888 2,35 C2,52.673112 16.326888,67 34,67 L34,67 C43.5740509,67 52.1660815,62.7954718 58.0303635,56.132144" id="Oval-701" stroke="#53d3f7" stroke-width="0.8" stroke-linecap="round" stroke-linejoin="round"></path>
                        <circle id="Oval-701" fill="#53d3f7" cx="61" cy="54" r="2"></circle>
                        <path d="M60.626245,46.3173309 C62.7850226,42.0094452 64,37.1466092 64,32 C64,14.326888 49.673112,0 32,0 C14.326888,0 0,14.326888 0,32 C0,49.673112 14.326888,64 32,64 L32,64 C41.5740509,64 50.1660815,59.7954718 56.0303635,53.132144" id="Oval-701-Copy" stroke="#2A2A2A" stroke-width="0.8" stroke-linecap="round" stroke-linejoin="round"></path>
                    </g>
                    <rect id="Rectangle-2002" stroke="#53d3f7" stroke-width="0.8" sketch:type="MSShapeGroup" transform="translate(679.480177, 332.480177) rotate(-315.000000) translate(-679.480177, -332.480177) " x="673.482802" y="326.484771" width="12" height="12"></rect>
                    <rect id="Rectangle-2002-Copy" stroke="#000000" stroke-width="0.8" sketch:type="MSShapeGroup" transform="translate(676.480177, 332.480177) rotate(-315.000000) translate(-676.480177, -332.480177) " x="670.482802" y="326.484771" width="12" height="12"></rect>
                    <rect id="Rectangle-2002-Copy-2" fill="#53d3f7" sketch:type="MSShapeGroup" transform="translate(18.480177, 75.480177) rotate(-315.000000) translate(-18.480177, -75.480177) " x="12.4828015" y="69.4847711" width="12" height="12"></rect>
                    <polygon id="Triangle-42" stroke="#53d3f7" stroke-width="0.8" sketch:type="MSShapeGroup" points="794.5 361 804 380 785 380 "></polygon>
                    <path d="M801,378 L782,378 L791.5,359 L801,378 Z" id="Triangle-42-Copy-2" stroke="#000000" stroke-width="0.8" sketch:type="MSShapeGroup"></path>
                    <polygon id="Triangle-42-Copy" stroke="#53d3f7" stroke-width="1.6" sketch:type="MSShapeGroup" transform="translate(187.549572, 149.549805) rotate(-132.000000) translate(-187.549572, -149.549805) " points="187.453771 139.957155 196.953771 158.957155 177.953771 158.957155 "></polygon>
                    <g id="Rectangle-2101-+-Line-+-Line-Copy" transform="translate(826.000000, 277.000000)" stroke="#53d3f7" stroke-width="0.5" sketch:type="MSShapeGroup">
                        <rect id="Rectangle-2101" x="0" y="0" width="12" height="11"></rect>
                        <path d="M0.206896552,0.196428571 L11.7931034,10.8035714" id="Line" stroke-linecap="round"></path>
                        <path d="M0.206896552,0.196428571 L11.7931034,10.8035714" id="Line-Copy" stroke-linecap="round" transform="translate(6.000000, 5.500000) scale(-1, 1) translate(-6.000000, -5.500000) "></path>
                    </g>
                    <circle id="Oval-701" fill="#53d3f7" sketch:type="MSShapeGroup" cx="673.5" cy="468.5" r="1.5"></circle>
                    <g id="Oval-685-+-Oval-685-Copy-4" transform="translate(557.000000, 403.000000)" sketch:type="MSShapeGroup">
                        <circle id="Oval-685" fill="#53d3f7" cx="10" cy="10" r="8"></circle>
                        <circle id="Oval-685-Copy" stroke="#000000" stroke-width="0.8" cx="8" cy="8" r="8"></circle>
                    </g>
                    <path d="M209.775888,413.165742 C210.328173,413.165742 210.775888,412.718027 210.775888,412.165742 C210.775888,411.613458 210.328173,411.165742 209.775888,411.165742 C209.223604,411.165742 208.775888,411.613458 208.775888,412.165742 C208.775888,412.718027 209.223604,413.165742 209.775888,413.165742 Z M214.018529,413.165742 C214.570814,413.165742 215.018529,412.718027 215.018529,412.165742 C215.018529,411.613458 214.570814,411.165742 214.018529,411.165742 C213.466244,411.165742 213.018529,411.613458 213.018529,412.165742 C213.018529,412.718027 213.466244,413.165742 214.018529,413.165742 Z M218.968277,413.872849 C219.520561,413.872849 219.968277,413.425134 219.968277,412.872849 C219.968277,412.320564 219.520561,411.872849 218.968277,411.872849 C218.415992,411.872849 217.968277,412.320564 217.968277,412.872849 C217.968277,413.425134 218.415992,413.872849 218.968277,413.872849 Z M223.918024,413.165742 C224.470309,413.165742 224.918024,412.718027 224.918024,412.165742 C224.918024,411.613458 224.470309,411.165742 223.918024,411.165742 C223.365739,411.165742 222.918024,411.613458 222.918024,412.165742 C222.918024,412.718027 223.365739,413.165742 223.918024,413.165742 Z M228.867772,413.872849 C229.420056,413.872849 229.867772,413.425134 229.867772,412.872849 C229.867772,412.320564 229.420056,411.872849 228.867772,411.872849 C228.315487,411.872849 227.867772,412.320564 227.867772,412.872849 C227.867772,413.425134 228.315487,413.872849 228.867772,413.872849 Z M209.068782,418.11549 C209.621066,418.11549 210.068782,417.667774 210.068782,417.11549 C210.068782,416.563205 209.621066,416.11549 209.068782,416.11549 C208.516497,416.11549 208.068782,416.563205 208.068782,417.11549 C208.068782,417.667774 208.516497,418.11549 209.068782,418.11549 Z M214.725636,418.11549 C215.277921,418.11549 215.725636,417.667774 215.725636,417.11549 C215.725636,416.563205 215.277921,416.11549 214.725636,416.11549 C214.173351,416.11549 213.725636,416.563205 213.725636,417.11549 C213.725636,417.667774 214.173351,418.11549 214.725636,418.11549 Z M218.968277,418.11549 C219.520561,418.11549 219.968277,417.667774 219.968277,417.11549 C219.968277,416.563205 219.520561,416.11549 218.968277,416.11549 C218.415992,416.11549 217.968277,416.563205 217.968277,417.11549 C217.968277,417.667774 218.415992,418.11549 218.968277,418.11549 Z M223.918024,418.822597 C224.470309,418.822597 224.918024,418.374881 224.918024,417.822597 C224.918024,417.270312 224.470309,416.822597 223.918024,416.822597 C223.365739,416.822597 222.918024,417.270312 222.918024,417.822597 C222.918024,418.374881 223.365739,418.822597 223.918024,418.822597 Z M228.867772,418.11549 C229.420056,418.11549 229.867772,417.667774 229.867772,417.11549 C229.867772,416.563205 229.420056,416.11549 228.867772,416.11549 C228.315487,416.11549 227.867772,416.563205 227.867772,417.11549 C227.867772,417.667774 228.315487,418.11549 228.867772,418.11549 Z M209.775888,423.065237 C210.328173,423.065237 210.775888,422.617522 210.775888,422.065237 C210.775888,421.512952 210.328173,421.065237 209.775888,421.065237 C209.223604,421.065237 208.775888,421.512952 208.775888,422.065237 C208.775888,422.617522 209.223604,423.065237 209.775888,423.065237 Z M214.018529,423.065237 C214.570814,423.065237 215.018529,422.617522 215.018529,422.065237 C215.018529,421.512952 214.570814,421.065237 214.018529,421.065237 C213.466244,421.065237 213.018529,421.512952 213.018529,422.065237 C213.018529,422.617522 213.466244,423.065237 214.018529,423.065237 Z M219.675383,423.065237 C220.227668,423.065237 220.675383,422.617522 220.675383,422.065237 C220.675383,421.512952 220.227668,421.065237 219.675383,421.065237 C219.123099,421.065237 218.675383,421.512952 218.675383,422.065237 C218.675383,422.617522 219.123099,423.065237 219.675383,423.065237 Z M223.918024,423.065237 C224.470309,423.065237 224.918024,422.617522 224.918024,422.065237 C224.918024,421.512952 224.470309,421.065237 223.918024,421.065237 C223.365739,421.065237 222.918024,421.512952 222.918024,422.065237 C222.918024,422.617522 223.365739,423.065237 223.918024,423.065237 Z M228.160665,423.065237 C228.712949,423.065237 229.160665,422.617522 229.160665,422.065237 C229.160665,421.512952 228.712949,421.065237 228.160665,421.065237 C227.60838,421.065237 227.160665,421.512952 227.160665,422.065237 C227.160665,422.617522 227.60838,423.065237 228.160665,423.065237 Z M209.068782,428.014985 C209.621066,428.014985 210.068782,427.567269 210.068782,427.014985 C210.068782,426.4627 209.621066,426.014985 209.068782,426.014985 C208.516497,426.014985 208.068782,426.4627 208.068782,427.014985 C208.068782,427.567269 208.516497,428.014985 209.068782,428.014985 Z M214.725636,428.014985 C215.277921,428.014985 215.725636,427.567269 215.725636,427.014985 C215.725636,426.4627 215.277921,426.014985 214.725636,426.014985 C214.173351,426.014985 213.725636,426.4627 213.725636,427.014985 C213.725636,427.567269 214.173351,428.014985 214.725636,428.014985 Z M218.968277,428.014985 C219.520561,428.014985 219.968277,427.567269 219.968277,427.014985 C219.968277,426.4627 219.520561,426.014985 218.968277,426.014985 C218.415992,426.014985 217.968277,426.4627 217.968277,427.014985 C217.968277,427.567269 218.415992,428.014985 218.968277,428.014985 Z M223.918024,427.307878 C224.470309,427.307878 224.918024,426.860163 224.918024,426.307878 C224.918024,425.755593 224.470309,425.307878 223.918024,425.307878 C223.365739,425.307878 222.918024,425.755593 222.918024,426.307878 C222.918024,426.860163 223.365739,427.307878 223.918024,427.307878 Z M228.867772,428.014985 C229.420056,428.014985 229.867772,427.567269 229.867772,427.014985 C229.867772,426.4627 229.420056,426.014985 228.867772,426.014985 C228.315487,426.014985 227.867772,426.4627 227.867772,427.014985 C227.867772,427.567269 228.315487,428.014985 228.867772,428.014985 Z M209.775888,432.964732 C210.328173,432.964732 210.775888,432.517017 210.775888,431.964732 C210.775888,431.412447 210.328173,430.964732 209.775888,430.964732 C209.223604,430.964732 208.775888,431.412447 208.775888,431.964732 C208.775888,432.517017 209.223604,432.964732 209.775888,432.964732 Z M214.018529,432.964732 C214.570814,432.964732 215.018529,432.517017 215.018529,431.964732 C215.018529,431.412447 214.570814,430.964732 214.018529,430.964732 C213.466244,430.964732 213.018529,431.412447 213.018529,431.964732 C213.018529,432.517017 213.466244,432.964732 214.018529,432.964732 Z M218.968277,432.257625 C219.520561,432.257625 219.968277,431.80991 219.968277,431.257625 C219.968277,430.705341 219.520561,430.257625 218.968277,430.257625 C218.415992,430.257625 217.968277,430.705341 217.968277,431.257625 C217.968277,431.80991 218.415992,432.257625 218.968277,432.257625 Z M223.918024,432.964732 C224.470309,432.964732 224.918024,432.517017 224.918024,431.964732 C224.918024,431.412447 224.470309,430.964732 223.918024,430.964732 C223.365739,430.964732 222.918024,431.412447 222.918024,431.964732 C222.918024,432.517017 223.365739,432.964732 223.918024,432.964732 Z M228.867772,432.257625 C229.420056,432.257625 229.867772,431.80991 229.867772,431.257625 C229.867772,430.705341 229.420056,430.257625 228.867772,430.257625 C228.315487,430.257625 227.867772,430.705341 227.867772,431.257625 C227.867772,431.80991 228.315487,432.257625 228.867772,432.257625 Z" id="Oval-685-Copy-10" fill="#53d3f7" sketch:type="MSShapeGroup" transform="translate(219.264318, 422.264318) rotate(-315.000000) translate(-219.264318, -422.264318) "></path>
                    <path d="M816.775888,457.165742 C817.328173,457.165742 817.775888,456.718027 817.775888,456.165742 C817.775888,455.613458 817.328173,455.165742 816.775888,455.165742 C816.223604,455.165742 815.775888,455.613458 815.775888,456.165742 C815.775888,456.718027 816.223604,457.165742 816.775888,457.165742 Z M821.018529,457.165742 C821.570814,457.165742 822.018529,456.718027 822.018529,456.165742 C822.018529,455.613458 821.570814,455.165742 821.018529,455.165742 C820.466244,455.165742 820.018529,455.613458 820.018529,456.165742 C820.018529,456.718027 820.466244,457.165742 821.018529,457.165742 Z M825.968277,457.872849 C826.520561,457.872849 826.968277,457.425134 826.968277,456.872849 C826.968277,456.320564 826.520561,455.872849 825.968277,455.872849 C825.415992,455.872849 824.968277,456.320564 824.968277,456.872849 C824.968277,457.425134 825.415992,457.872849 825.968277,457.872849 Z M830.918024,457.165742 C831.470309,457.165742 831.918024,456.718027 831.918024,456.165742 C831.918024,455.613458 831.470309,455.165742 830.918024,455.165742 C830.365739,455.165742 829.918024,455.613458 829.918024,456.165742 C829.918024,456.718027 830.365739,457.165742 830.918024,457.165742 Z M835.867772,457.872849 C836.420056,457.872849 836.867772,457.425134 836.867772,456.872849 C836.867772,456.320564 836.420056,455.872849 835.867772,455.872849 C835.315487,455.872849 834.867772,456.320564 834.867772,456.872849 C834.867772,457.425134 835.315487,457.872849 835.867772,457.872849 Z M816.068782,462.11549 C816.621066,462.11549 817.068782,461.667774 817.068782,461.11549 C817.068782,460.563205 816.621066,460.11549 816.068782,460.11549 C815.516497,460.11549 815.068782,460.563205 815.068782,461.11549 C815.068782,461.667774 815.516497,462.11549 816.068782,462.11549 Z M821.725636,462.11549 C822.277921,462.11549 822.725636,461.667774 822.725636,461.11549 C822.725636,460.563205 822.277921,460.11549 821.725636,460.11549 C821.173351,460.11549 820.725636,460.563205 820.725636,461.11549 C820.725636,461.667774 821.173351,462.11549 821.725636,462.11549 Z M825.968277,462.11549 C826.520561,462.11549 826.968277,461.667774 826.968277,461.11549 C826.968277,460.563205 826.520561,460.11549 825.968277,460.11549 C825.415992,460.11549 824.968277,460.563205 824.968277,461.11549 C824.968277,461.667774 825.415992,462.11549 825.968277,462.11549 Z M830.918024,462.822597 C831.470309,462.822597 831.918024,462.374881 831.918024,461.822597 C831.918024,461.270312 831.470309,460.822597 830.918024,460.822597 C830.365739,460.822597 829.918024,461.270312 829.918024,461.822597 C829.918024,462.374881 830.365739,462.822597 830.918024,462.822597 Z M835.867772,462.11549 C836.420056,462.11549 836.867772,461.667774 836.867772,461.11549 C836.867772,460.563205 836.420056,460.11549 835.867772,460.11549 C835.315487,460.11549 834.867772,460.563205 834.867772,461.11549 C834.867772,461.667774 835.315487,462.11549 835.867772,462.11549 Z M816.775888,467.065237 C817.328173,467.065237 817.775888,466.617522 817.775888,466.065237 C817.775888,465.512952 817.328173,465.065237 816.775888,465.065237 C816.223604,465.065237 815.775888,465.512952 815.775888,466.065237 C815.775888,466.617522 816.223604,467.065237 816.775888,467.065237 Z M821.018529,467.065237 C821.570814,467.065237 822.018529,466.617522 822.018529,466.065237 C822.018529,465.512952 821.570814,465.065237 821.018529,465.065237 C820.466244,465.065237 820.018529,465.512952 820.018529,466.065237 C820.018529,466.617522 820.466244,467.065237 821.018529,467.065237 Z M826.675383,467.065237 C827.227668,467.065237 827.675383,466.617522 827.675383,466.065237 C827.675383,465.512952 827.227668,465.065237 826.675383,465.065237 C826.123099,465.065237 825.675383,465.512952 825.675383,466.065237 C825.675383,466.617522 826.123099,467.065237 826.675383,467.065237 Z M830.918024,467.065237 C831.470309,467.065237 831.918024,466.617522 831.918024,466.065237 C831.918024,465.512952 831.470309,465.065237 830.918024,465.065237 C830.365739,465.065237 829.918024,465.512952 829.918024,466.065237 C829.918024,466.617522 830.365739,467.065237 830.918024,467.065237 Z M835.160665,467.065237 C835.712949,467.065237 836.160665,466.617522 836.160665,466.065237 C836.160665,465.512952 835.712949,465.065237 835.160665,465.065237 C834.60838,465.065237 834.160665,465.512952 834.160665,466.065237 C834.160665,466.617522 834.60838,467.065237 835.160665,467.065237 Z M816.068782,472.014985 C816.621066,472.014985 817.068782,471.567269 817.068782,471.014985 C817.068782,470.4627 816.621066,470.014985 816.068782,470.014985 C815.516497,470.014985 815.068782,470.4627 815.068782,471.014985 C815.068782,471.567269 815.516497,472.014985 816.068782,472.014985 Z M821.725636,472.014985 C822.277921,472.014985 822.725636,471.567269 822.725636,471.014985 C822.725636,470.4627 822.277921,470.014985 821.725636,470.014985 C821.173351,470.014985 820.725636,470.4627 820.725636,471.014985 C820.725636,471.567269 821.173351,472.014985 821.725636,472.014985 Z M825.968277,472.014985 C826.520561,472.014985 826.968277,471.567269 826.968277,471.014985 C826.968277,470.4627 826.520561,470.014985 825.968277,470.014985 C825.415992,470.014985 824.968277,470.4627 824.968277,471.014985 C824.968277,471.567269 825.415992,472.014985 825.968277,472.014985 Z M830.918024,471.307878 C831.470309,471.307878 831.918024,470.860163 831.918024,470.307878 C831.918024,469.755593 831.470309,469.307878 830.918024,469.307878 C830.365739,469.307878 829.918024,469.755593 829.918024,470.307878 C829.918024,470.860163 830.365739,471.307878 830.918024,471.307878 Z M835.867772,472.014985 C836.420056,472.014985 836.867772,471.567269 836.867772,471.014985 C836.867772,470.4627 836.420056,470.014985 835.867772,470.014985 C835.315487,470.014985 834.867772,470.4627 834.867772,471.014985 C834.867772,471.567269 835.315487,472.014985 835.867772,472.014985 Z M816.775888,476.964732 C817.328173,476.964732 817.775888,476.517017 817.775888,475.964732 C817.775888,475.412447 817.328173,474.964732 816.775888,474.964732 C816.223604,474.964732 815.775888,475.412447 815.775888,475.964732 C815.775888,476.517017 816.223604,476.964732 816.775888,476.964732 Z M821.018529,476.964732 C821.570814,476.964732 822.018529,476.517017 822.018529,475.964732 C822.018529,475.412447 821.570814,474.964732 821.018529,474.964732 C820.466244,474.964732 820.018529,475.412447 820.018529,475.964732 C820.018529,476.517017 820.466244,476.964732 821.018529,476.964732 Z M825.968277,476.257625 C826.520561,476.257625 826.968277,475.80991 826.968277,475.257625 C826.968277,474.705341 826.520561,474.257625 825.968277,474.257625 C825.415992,474.257625 824.968277,474.705341 824.968277,475.257625 C824.968277,475.80991 825.415992,476.257625 825.968277,476.257625 Z M830.918024,476.964732 C831.470309,476.964732 831.918024,476.517017 831.918024,475.964732 C831.918024,475.412447 831.470309,474.964732 830.918024,474.964732 C830.365739,474.964732 829.918024,475.412447 829.918024,475.964732 C829.918024,476.517017 830.365739,476.964732 830.918024,476.964732 Z M835.867772,476.257625 C836.420056,476.257625 836.867772,475.80991 836.867772,475.257625 C836.867772,474.705341 836.420056,474.257625 835.867772,474.257625 C835.315487,474.257625 834.867772,474.705341 834.867772,475.257625 C834.867772,475.80991 835.315487,476.257625 835.867772,476.257625 Z" id="Oval-685-Copy-16" fill="#53d3f7" sketch:type="MSShapeGroup" transform="translate(826.264318, 466.264318) rotate(-315.000000) translate(-826.264318, -466.264318) "></path>
                    <rect id="Rectangle-2002-Copy-3" fill="#53d3f7" sketch:type="MSShapeGroup" transform="translate(104.639848, 443.639848) rotate(-315.000000) translate(-104.639848, -443.639848) " x="101.358441" y="440.359519" width="7" height="7"></rect>
                </g>
            </g>
        </g>
    </g>
</svg>