<?xml version="1.0" encoding="UTF-8" standalone="no"?>
<svg width="127px" height="178px" viewBox="0 0 127 178" version="1.1" xmlns="http://www.w3.org/2000/svg" xmlns:xlink="http://www.w3.org/1999/xlink" xmlns:sketch="http://www.bohemiancoding.com/sketch/ns">
    <!-- Generator: Sketch 3.4.4 (17249) - http://www.bohemiancoding.com/sketch -->
    <title>logo</title>
    <desc>Created with Sketch.</desc>
    <defs></defs>
    <g id="专栏发现" stroke="none" stroke-width="1" fill="none" fill-rule="evenodd" sketch:type="MSPage">
        <g id="专栏入口页_1366-copy" sketch:type="MSArtboardGroup" transform="translate(-898.000000, -173.000000)">
            <g id="Group" sketch:type="MSLayerGroup" transform="translate(2.000000, 0.000000)">
                <g id="logo" transform="translate(896.000000, 173.000000)" sketch:type="MSShapeGroup">
                    <path d="M54,169 L73,162 L73,165 L54,172 L54,169 Z M54,175 L73,168 L73,171 L54,178 L54,175 Z" id="Rectangle-280-Copy" fill="#2A2A2A"></path>
                    <g id="Rectangle-1986-+-文章">
                        <path d="M3,3 L3,3 L3,125 L124,125 L124,3 L3,3 Z M3,0 L3,0 L124,0 L127,0 L127,3 L127,125 L127,128 L124,128 L3,128 L0,128 L0,125 L0,3 L0,0 L3,0 Z" id="Shape" fill="#292929"></path>
                        <path d="M61.12,30.248 L50.4,30.248 L50.4,54.792 L52.608,54.792 L52.608,52.68 L58.88,52.68 L58.88,54.728 L61.12,54.728 L61.12,30.248 Z M52.608,50.536 L52.608,32.392 L58.88,32.392 L58.88,50.536 L52.608,50.536 Z M38.304,33.352 L41.408,33.352 C41.376,35.656 41.248,37.8 40.992,39.72 L33.984,39.72 L33.984,41.928 L40.672,41.928 C40.512,42.76 40.32,43.56 40.128,44.328 C39.04,48.072 36.8,51.176 33.408,53.64 L34.912,55.496 C38.304,53.064 40.64,50.056 41.952,46.472 C43.456,48.136 45.28,50.472 47.456,53.544 L48.832,51.432 C46.72,48.808 44.608,46.44 42.56,44.36 C42.752,43.592 42.912,42.76 43.072,41.928 L48.736,41.928 L48.736,39.72 L43.392,39.72 C43.616,37.8 43.744,35.656 43.776,33.352 L48.448,33.352 L48.448,31.144 L39.2,31.144 C39.648,29.928 40.064,28.616 40.448,27.24 L38.176,26.76 C37.216,30.44 35.712,33.8 33.6,36.872 L35.616,38.152 C36.608,36.68 37.504,35.08 38.304,33.352 L38.304,33.352 Z M65.824,42.024 L65.824,44.264 L79.328,44.264 L79.328,52.264 C79.328,53.352 78.848,53.896 77.952,53.896 C76.672,53.896 75.328,53.832 73.92,53.736 L74.4,56.008 L78.752,56.008 C80.672,56.008 81.664,54.952 81.664,52.872 L81.664,44.264 L94.272,44.264 L94.272,42.024 L81.664,42.024 L81.664,31.464 C85.824,31.016 89.44,30.376 92.576,29.544 L91.424,27.528 C85.024,29.128 76.96,29.928 67.264,29.96 L67.968,32.104 C72.064,32.104 75.872,31.944 79.328,31.688 L79.328,42.024 L65.824,42.024 Z M88.48,32.552 C87.584,35.4 86.56,37.768 85.376,39.624 L87.488,40.392 C88.8,38.312 89.888,35.88 90.72,33.128 L88.48,32.552 Z M71.904,33.8 L69.792,34.504 C70.944,36.296 72.032,38.344 72.992,40.68 L74.944,39.816 C74.048,37.672 73.056,35.656 71.904,33.8 L71.904,33.8 Z M33.632,81.616 L33.632,83.856 L42.144,83.856 C41.472,86.064 40.736,88.176 39.968,90.224 L55.776,90.224 C54.08,92.336 51.744,94.384 48.8,96.304 C46.592,95.536 44.288,94.8 41.888,94.16 L40.672,95.952 C45.76,97.328 50.72,99.184 55.52,101.552 L56.8,99.536 C55.04,98.704 53.184,97.904 51.264,97.2 C54.56,94.832 56.96,92.432 58.496,90.064 L58.496,88.08 L43.264,88.08 C43.712,86.768 44.192,85.36 44.64,83.856 L62.368,83.856 L62.368,81.616 L45.248,81.616 C45.568,80.368 45.888,79.056 46.208,77.648 L60.48,77.648 L60.48,75.504 L46.688,75.504 C46.944,74.352 47.168,73.104 47.424,71.824 L45.056,71.632 C44.8,72.912 44.544,74.192 44.256,75.504 L35.808,75.504 L35.808,77.648 L43.776,77.648 C43.456,78.992 43.136,80.304 42.784,81.616 L33.632,81.616 Z M80.672,72.272 L78.656,73.264 C79.744,74.928 80.8,76.784 81.792,78.896 L83.84,77.872 C82.848,75.824 81.792,73.968 80.672,72.272 L80.672,72.272 Z M89.984,71.888 C89.088,74.832 88.032,77.552 86.816,80.048 L77.728,80.048 L77.728,82.288 L93.568,82.288 L93.568,80.048 L89.216,80.048 C90.368,77.936 91.36,75.472 92.256,72.688 L89.984,71.888 Z M72.8,84.688 C73.76,85.968 74.88,87.568 76.16,89.552 L77.536,87.536 C75.936,85.52 74.368,83.728 72.8,82.128 L72.8,80.336 L76.64,80.336 L76.64,78.128 L72.8,78.128 L72.8,71.888 L70.464,71.888 L70.464,78.128 L65.792,78.128 L65.792,80.336 L70.336,80.336 C69.312,84.272 67.552,87.792 65.056,90.864 L66.048,93.36 C67.872,90.736 69.344,87.792 70.464,84.56 L70.464,101.072 L72.8,101.072 L72.8,84.688 Z M76.384,97.232 L76.384,99.472 L94.528,99.472 L94.528,97.232 L76.384,97.232 Z M78.752,88.368 L78.752,90.608 L92.576,90.608 L92.576,88.368 L78.752,88.368 Z" id="文章-copy" fill="#000000"></path>
                    </g>
                </g>
            </g>
        </g>
    </g>
</svg>